<svg id="Groupe_5529" data-name="Groupe 5529" xmlns="http://www.w3.org/2000/svg" xmlns:xlink="http://www.w3.org/1999/xlink" width="240.827" height="192.583" viewBox="0 0 240.827 192.583">
  <defs>
    <clipPath id="clip-path">
      <rect id="Rectangle_2750" data-name="Rectangle 2750" width="240.827" height="192.583" transform="translate(0 0)" fill="none"/>
    </clipPath>
  </defs>
  <g id="Groupe_5452" data-name="Groupe 5452" transform="translate(0 0)" clip-path="url(#clip-path)">
    <path id="Tracé_1948" data-name="Tracé 1948" d="M1753.143,323.165a5.665,5.665,0,0,1,.425-1.768,5.06,5.06,0,0,1,1.559-1.721,35.59,35.59,0,0,1,7.47-4.06l6.351-2.821c.893-.4,2.026-.764,2.766-.126a1.715,1.715,0,0,1,.435,1.708,4.064,4.064,0,0,1-.935,1.585,13.857,13.857,0,0,1-3.369,2.8,6.535,6.535,0,0,0-2.581,3.274,27.784,27.784,0,0,0-.654,2.885c-.562,2.416-1.394,4.611-3.631,5.851a7.575,7.575,0,0,1-6.267.67c-3.146-1.224-1.881-5.772-1.567-8.275" transform="translate(-1561.841 -278.325)" fill="#fff"/>
    <path id="Tracé_1949" data-name="Tracé 1949" d="M1756.031,331.042a6.378,6.378,0,0,1-2.313-.415c-2.8-1.087-2.226-4.652-1.81-7.254.065-.409.127-.8.17-1.141a5.728,5.728,0,0,1,.435-1.8,5.206,5.206,0,0,1,1.592-1.762,35.705,35.705,0,0,1,7.493-4.075l6.35-2.821c.854-.379,2.081-.8,2.887-.108a1.815,1.815,0,0,1,.472,1.823,4.2,4.2,0,0,1-.959,1.631,13.965,13.965,0,0,1-3.393,2.819,6.4,6.4,0,0,0-2.536,3.216,12.853,12.853,0,0,0-.444,1.854c-.063.335-.128.681-.207,1.019-.538,2.314-1.358,4.634-3.687,5.925a8.441,8.441,0,0,1-4.051,1.092m-3.839-8.8.114.014c-.044.349-.106.738-.172,1.149-.4,2.526-.957,5.985,1.667,7.005a7.431,7.431,0,0,0,6.17-.663c2.251-1.248,3.049-3.513,3.575-5.776.078-.333.142-.677.2-1.01a13.025,13.025,0,0,1,.453-1.887,6.63,6.63,0,0,1,2.627-3.332,13.782,13.782,0,0,0,3.345-2.777,3.993,3.993,0,0,0,.911-1.539,1.586,1.586,0,0,0-.4-1.594c-.707-.61-1.848-.21-2.644.144l-6.35,2.821a35.542,35.542,0,0,0-7.446,4.047,5,5,0,0,0-1.525,1.68,5.542,5.542,0,0,0-.415,1.733Z" transform="translate(-1560.891 -277.405)" fill="#231f20"/>
    <path id="Tracé_1950" data-name="Tracé 1950" d="M1744.543,52.026l-16.312-19.157-8.471,23.692,4.807-24.7-23.805,8.148,22.307-11.64-21.213-13.531,23.009,10.182L1722.217,0l6.385,24.338,17.912-17.67-15.047,20.166,24.983,2.987-25.148.809Z" transform="translate(-1515.623 -0.002)" fill="#99ffb1"/>
    <path id="Tracé_1951" data-name="Tracé 1951" d="M1740.034,294.513l-13.109-7.835c2.169-5.092,4.277-10.434,6.445-15.527a16.844,16.844,0,0,1,2.638-4.713,13.254,13.254,0,0,1,3.349-2.568,62.282,62.282,0,0,1,7.736-3.579,4.616,4.616,0,0,1,2.113-.492,1.583,1.583,0,0,1,1.5,1.331c.064,1.383-2.241,2.569-3.14,3.343q-1.993,1.717-3.836,3.6a2.366,2.366,0,0,1,2.015-.139,2.458,2.458,0,0,1,1.535,1.38,4.9,4.9,0,0,1-.07,3.006,3.344,3.344,0,0,1,2.3-.679,2.384,2.384,0,0,1,1.982,1.552,2.7,2.7,0,0,1,.1.85,4.462,4.462,0,0,1-.489,1.929,2.94,2.94,0,0,1,3.507,1.912,6.729,6.729,0,0,1-.3,4.391,18.879,18.879,0,0,1-1.138,2.638,4.757,4.757,0,0,1-1.724,2.051,1.954,1.954,0,0,1-2.466-.333c-2.766,4.021-5.561,7.855-8.957,7.881" transform="translate(-1538.938 -231.51)" fill="#fff"/>
    <path id="Tracé_1952" data-name="Tracé 1952" d="M790.805,1069.882l-.033.168.493.166Z" transform="translate(-704.691 -953.419)" fill="#efe9e0"/>
    <path id="Tracé_1953" data-name="Tracé 1953" d="M4.087,1051.388a7.953,7.953,0,0,0,2.445,1.8,7.687,7.687,0,0,0,3.94-1.159,12.6,12.6,0,0,0,5.473-6.542l3.844-10.23c.343.468.715.942,1.125,1.423L49.2,1059.514c6.218,6.193,11.691,8.372,17.259,6.559a13.673,13.673,0,0,0,9.079-10.425l11.48-55.373-25.79-8.692-8.321,44.485-20.053-14.977a12.83,12.83,0,0,0-1.446-.73h0L20.1,1011.7c-.044-.019-.089-.04-.133-.061-.293-.138-.59-.258-.888-.365a9.859,9.859,0,0,0-10.106,6.111c-3.408,8.412-6.264,16.566-7.7,24.059a11.285,11.285,0,0,0,2.824,9.945" transform="translate(-0.937 -883.643)" fill="#fff"/>
    <path id="Tracé_1954" data-name="Tracé 1954" d="M61.744,1065.868c-4.292,0-8.688-2.354-13.558-7.2l-28.279-22.831a.11.11,0,0,1-.015-.015c-.35-.411-.68-.825-1-1.26l-3.77,10.033a12.732,12.732,0,0,1-5.524,6.6,7.823,7.823,0,0,1-4,1.174.116.116,0,0,1-.045-.01,8.1,8.1,0,0,1-2.481-1.825,11.407,11.407,0,0,1-2.853-10.045c1.261-6.558,3.712-14.21,7.711-24.081a10.01,10.01,0,0,1,10.224-6.182.117.117,0,0,1,.027.006c.326.117.62.238.9.369.043.02.087.041.129.059a.11.11,0,0,1,.025.014l11.3,8.655a12.955,12.955,0,0,1,1.441.729l.01.007,19.906,14.868,8.287-44.3a.114.114,0,0,1,.225.042l-8.321,44.485a.114.114,0,0,1-.181.071L31.854,1020.25a12.788,12.788,0,0,0-1.428-.72.113.113,0,0,1-.038-.026L19.1,1010.863l-.124-.056c-.268-.127-.551-.243-.865-.356a9.78,9.78,0,0,0-9.975,6.041c-3.994,9.857-6.44,17.5-7.7,24.038a11.178,11.178,0,0,0,2.794,9.844,7.893,7.893,0,0,0,2.388,1.764,7.659,7.659,0,0,0,3.858-1.144,12.5,12.5,0,0,0,5.423-6.483l3.844-10.23a.114.114,0,0,1,.2-.027c.36.491.724.952,1.113,1.409l28.275,22.828.009.008c6.253,6.228,11.7,8.3,17.143,6.531a13.544,13.544,0,0,0,9-10.339l11.481-55.375a.114.114,0,0,1,.224.046l-11.48,55.373a13.772,13.772,0,0,1-9.156,10.511,12.242,12.242,0,0,1-3.813.621" transform="translate(0 -882.707)" fill="#231f20"/>
    <path id="Tracé_1955" data-name="Tracé 1955" d="M450.315,1576.579a.114.114,0,0,1-.066-.208c7.6-5.31,15.726-6.809,25.568-4.719a.114.114,0,1,1-.048.224c-9.776-2.076-17.844-.588-25.389,4.683a.116.116,0,0,1-.065.021" transform="translate(-401.193 -1399.758)" fill="#231f20"/>
    <path id="Tracé_1956" data-name="Tracé 1956" d="M484.8,1418.951a.114.114,0,0,1-.105-.07l-8.321-19.534a.114.114,0,1,1,.211-.09l8.321,19.534a.114.114,0,0,1-.06.15.111.111,0,0,1-.045.009" transform="translate(-424.513 -1246.877)" fill="#231f20"/>
    <path id="Tracé_1957" data-name="Tracé 1957" d="M1224.792,212.162a13.645,13.645,0,0,1-3.36,7.273,14.792,14.792,0,0,1-3.74,2.967q-.914.515-1.829.917a19.092,19.092,0,0,1-2.811.987,15.933,15.933,0,0,1-5.395-7.515,18.245,18.245,0,0,1,9.163-22.071c.188-.093.378-.182.57-.267,5.844,3.448,8.375,11.115,7.4,17.709" transform="translate(-1075.363 -173.286)" fill="#7aea92"/>
    <path id="Tracé_1958" data-name="Tracé 1958" d="M1102.246,226.06l-8.476-2.489a16.3,16.3,0,0,1-6.761-3.292c-4.629-4.342-4.29-12.2-.091-16.641a12.628,12.628,0,0,1,7.746-3.837,17.548,17.548,0,0,1,3.364.008,16.647,16.647,0,0,1,7.179,2.062c-.332.273-.649.565-.953.868a18.609,18.609,0,0,0-4.765,10.23,19.472,19.472,0,0,0,.232,8.157,12.855,12.855,0,0,0,2.526,4.937" transform="translate(-965.689 -177.981)" fill="#fff"/>
    <path id="Tracé_1959" data-name="Tracé 1959" d="M1101.308,225.238a.118.118,0,0,1-.032,0l-8.476-2.489c-2.3-.674-4.914-1.543-6.807-3.319a11.088,11.088,0,0,1-3.387-7.856,12.515,12.515,0,0,1,3.291-8.947,12.8,12.8,0,0,1,7.817-3.872,17.477,17.477,0,0,1,3.385.007,16.552,16.552,0,0,1,7.228,2.078.114.114,0,0,1,.014.186c-.316.26-.633.55-.944.861a18.422,18.422,0,0,0-4.733,10.167,19.316,19.316,0,0,0,.23,8.108,12.744,12.744,0,0,0,2.5,4.893.114.114,0,0,1-.087.188m-6.059-26.339a14.072,14.072,0,0,0-1.511.077,12.571,12.571,0,0,0-7.675,3.8,12.284,12.284,0,0,0-3.228,8.783,10.861,10.861,0,0,0,3.315,7.7,16.135,16.135,0,0,0,6.715,3.266l8.122,2.385a13.091,13.091,0,0,1-2.315-4.693,19.542,19.542,0,0,1-.235-8.2,18.649,18.649,0,0,1,4.8-10.292c.275-.276.556-.535.836-.772a16.5,16.5,0,0,0-6.991-1.964c-.665-.057-1.268-.085-1.83-.085" transform="translate(-964.751 -177.044)" fill="#231f20"/>
    <path id="Tracé_1960" data-name="Tracé 1960" d="M1262.8,247.369a13.532,13.532,0,0,1-.582,5.682,7.2,7.2,0,0,1-.574,1.229,5.058,5.058,0,0,1-3.462,2.391,12.92,12.92,0,0,1-2.407-4.793,19.47,19.47,0,0,1-.23-8.156,22.272,22.272,0,0,1,1.673-5.665l.006-.015a15.725,15.725,0,0,1,2.857-4.314,8.147,8.147,0,0,1,1.312,1.808c1.371,2.563,1.337,5.674,1.344,8.776.662,1.407,1.7,1.929.065,3.056" transform="translate(-1118.582 -208.286)" fill="#fff"/>
    <path id="Tracé_1961" data-name="Tracé 1961" d="M1257.25,255.849a.115.115,0,0,1-.089-.042,13.06,13.06,0,0,1-2.429-4.836,19.536,19.536,0,0,1-.233-8.2,22.337,22.337,0,0,1,1.682-5.694l0-.008a15.86,15.86,0,0,1,2.881-4.352.114.114,0,0,1,.083-.036h0a.115.115,0,0,1,.083.035,8.324,8.324,0,0,1,1.33,1.834c1.345,2.515,1.351,5.59,1.357,8.565v.24a8.182,8.182,0,0,0,.469.825c.51.817.881,1.409-.4,2.315a13.5,13.5,0,0,1-.591,5.663,7.321,7.321,0,0,1-.583,1.249,5.179,5.179,0,0,1-3.54,2.445l-.021,0m1.9-22.89a15.673,15.673,0,0,0-2.753,4.194l0,.008a22.135,22.135,0,0,0-1.667,5.643,19.308,19.308,0,0,0,.228,8.108,12.849,12.849,0,0,0,2.343,4.7,4.948,4.948,0,0,0,3.318-2.324,7.09,7.09,0,0,0,.565-1.21,13.452,13.452,0,0,0,.576-5.64.115.115,0,0,1,.049-.1c1.164-.8.9-1.216.389-2.041a8.2,8.2,0,0,1-.493-.872.117.117,0,0,1-.011-.048v-.265c-.006-2.946-.011-5.993-1.33-8.457a8.1,8.1,0,0,0-1.211-1.7" transform="translate(-1117.654 -207.349)" fill="#231f20"/>
    <path id="Tracé_1962" data-name="Tracé 1962" d="M1301.9,317.054c-.065.458-.312.8-.552.767s-.381-.433-.316-.89.313-.8.552-.767.381.433.316.89" transform="translate(-1159.391 -281.745)" fill="#231f20"/>
    <path id="Tracé_1963" data-name="Tracé 1963" d="M1281.85,287.445a1.587,1.587,0,0,0,.575-.494.583.583,0,0,0-.041-.707.775.775,0,0,0-.343-.163,3.926,3.926,0,0,0-3.373.687c-.857.669-.478,1.435.456,1.519a5.165,5.165,0,0,0,2.726-.841" transform="translate(-1139.05 -254.827)" fill="#231f20"/>
    <path id="Tracé_1964" data-name="Tracé 1964" d="M1235.973,324.629c-4.8-.489-2.429-10-2.027-13.1.088,2.428,2.153,4.363,4.37,5.359a30.649,30.649,0,0,1,3.388,1.492,6.978,6.978,0,0,1,1.753,1.607,3.53,3.53,0,0,1,.291.39,4,4,0,0,1,.241.478l.359.8a7.255,7.255,0,0,0-3.738-1.8,4.813,4.813,0,0,0,4.032,2.937,2.3,2.3,0,0,1-1.536.654,6.625,6.625,0,0,1-5.019-1.482,4.561,4.561,0,0,1,1.479,3.866,1.7,1.7,0,0,0-.561-.551,3.533,3.533,0,0,0-.958-.554,9.83,9.83,0,0,0-2.074-.1" transform="translate(-1098.786 -277.62)" fill="#ff99e5"/>
    <path id="Tracé_1965" data-name="Tracé 1965" d="M1238.651,325.012a.114.114,0,0,1-.106-.072,1.591,1.591,0,0,0-.5-.485l-.021-.015a3.478,3.478,0,0,0-.926-.538,3.43,3.43,0,0,0-1.216-.09,5.87,5.87,0,0,1-.834-.005,2.826,2.826,0,0,1-2.044-1.118c-1.726-2.265-.854-7.441-.333-10.533.1-.62.195-1.156.249-1.575a.114.114,0,0,1,.228.011c.09,2.493,2.281,4.351,4.3,5.259.4.178.81.34,1.21.5a14.027,14.027,0,0,1,2.191,1,7.136,7.136,0,0,1,1.782,1.632,3.665,3.665,0,0,1,.3.4,4.127,4.127,0,0,1,.248.491l.359.8a.114.114,0,0,1-.184.129,7.016,7.016,0,0,0-3.465-1.726,4.692,4.692,0,0,0,3.846,2.67.114.114,0,0,1,.085.181,2.281,2.281,0,0,1-1.614.7,6.779,6.779,0,0,1-4.268-.912,4.744,4.744,0,0,1,.828,3.194.115.115,0,0,1-.1.1h-.016m-2.335-1.442a2.723,2.723,0,0,1,.852.114,3.647,3.647,0,0,1,.99.571l.021.015a3.266,3.266,0,0,1,.38.309,4.438,4.438,0,0,0-1.462-3.461.114.114,0,0,1,.149-.174,6.531,6.531,0,0,0,4.931,1.456,2.544,2.544,0,0,0,1.307-.448,4.946,4.946,0,0,1-3.895-2.986.115.115,0,0,1,.125-.157,7.608,7.608,0,0,1,3.4,1.473l-.142-.315a3.945,3.945,0,0,0-.234-.464,3.447,3.447,0,0,0-.282-.377,6.93,6.93,0,0,0-1.724-1.582,13.847,13.847,0,0,0-2.155-.985c-.4-.157-.819-.319-1.22-.5-1.856-.834-3.852-2.453-4.332-4.632-.039.238-.082.494-.128.767-.515,3.056-1.376,8.169.29,10.356a2.606,2.606,0,0,0,1.885,1.029,5.675,5.675,0,0,0,.8,0c.147-.006.3-.012.444-.012" transform="translate(-1097.872 -276.683)" fill="#231f20"/>
    <path id="Tracé_1966" data-name="Tracé 1966" d="M1304.023,354.51c-.656,0-1.206-.3-1.844-1.238a.114.114,0,0,1,.189-.128c.768,1.134,1.363,1.249,2.257,1.067a.114.114,0,1,1,.046.224,3.269,3.269,0,0,1-.648.075" transform="translate(-1160.411 -314.657)" fill="#231f20"/>
    <path id="Tracé_1967" data-name="Tracé 1967" d="M1232.317,243.945a5.278,5.278,0,0,1-2.43-.128l-.609-.179a12.856,12.856,0,0,1-2.526-4.937,19.47,19.47,0,0,1-.232-8.157,18.611,18.611,0,0,1,4.765-10.23c.3-.3.621-.595.953-.868.146.086.289.178.43.271q.385.255.722.529a8.352,8.352,0,0,1,.826.754,15.723,15.723,0,0,0-2.857,4.314l-.006.015a22.269,22.269,0,0,0-1.672,5.665,19.469,19.469,0,0,0,.23,8.156,12.922,12.922,0,0,0,2.407,4.793" transform="translate(-1092.72 -195.559)" fill="#fff"/>
    <path id="Tracé_1968" data-name="Tracé 1968" d="M1230.45,243.207a5.421,5.421,0,0,1-1.521-.217l-.609-.179a.114.114,0,0,1-.055-.036,12.978,12.978,0,0,1-2.549-4.981,19.549,19.549,0,0,1-.234-8.2,18.649,18.649,0,0,1,4.8-10.292c.317-.317.64-.611.961-.876a.115.115,0,0,1,.131-.01c.13.078.268.165.434.274.256.17.5.35.731.536a8.431,8.431,0,0,1,.836.764.115.115,0,0,1,0,.158,15.619,15.619,0,0,0-2.836,4.282l0,.008a22.131,22.131,0,0,0-1.667,5.643,19.31,19.31,0,0,0,.228,8.108,12.825,12.825,0,0,0,2.386,4.75.114.114,0,0,1-.068.185,5.375,5.375,0,0,1-.963.087m-2.032-.606.576.169a5.191,5.191,0,0,0,2.187.156,13.12,13.12,0,0,1-2.306-4.682,19.535,19.535,0,0,1-.233-8.2,22.337,22.337,0,0,1,1.682-5.695l0-.007a15.9,15.9,0,0,1,2.806-4.272,8.215,8.215,0,0,0-.739-.666c-.224-.182-.464-.358-.714-.524-.133-.088-.249-.161-.356-.227-.3.246-.592.518-.882.809a18.422,18.422,0,0,0-4.733,10.167,19.316,19.316,0,0,0,.229,8.108,12.757,12.757,0,0,0,2.481,4.866" transform="translate(-1091.795 -194.622)" fill="#231f20"/>
    <path id="Tracé_1969" data-name="Tracé 1969" d="M1276.886,235.537a10.472,10.472,0,0,1-4.274,2.764l.1-.244.006-.015a15.729,15.729,0,0,1,2.857-4.314,8.165,8.165,0,0,1,1.312,1.808" transform="translate(-1134.08 -208.286)" fill="#ff99e5"/>
    <path id="Tracé_1970" data-name="Tracé 1970" d="M1271.675,237.479a.114.114,0,0,1-.106-.157l.1-.257a15.857,15.857,0,0,1,2.881-4.352.115.115,0,0,1,.083-.036h0a.114.114,0,0,1,.083.035,8.32,8.32,0,0,1,1.33,1.834.114.114,0,0,1-.017.132,10.563,10.563,0,0,1-4.321,2.795.115.115,0,0,1-.037.006m2.962-4.52a15.676,15.676,0,0,0-2.753,4.194l-.007.02a10.343,10.343,0,0,0,3.932-2.59,8.1,8.1,0,0,0-1.172-1.623" transform="translate(-1133.143 -207.349)" fill="#231f20"/>
    <path id="Tracé_1971" data-name="Tracé 1971" d="M1035.71,198.059c-4.748,1.261-9.585.573-14.527-1.016-5.35-1.718-10.3-4.808-12.44-10.271a15.085,15.085,0,0,1-.462-9.539,16.264,16.264,0,0,1,9.395-10.468c6.476-2.8,14.576-2.049,20.939.708a12.838,12.838,0,0,1,1.434.732q-.289.128-.57.267a18.244,18.244,0,0,0-9.163,22.071,15.933,15.933,0,0,0,5.395,7.515" transform="translate(-898.022 -147.039)" fill="#fff"/>
    <path id="Tracé_1972" data-name="Tracé 1972" d="M1029.63,197.952a30.874,30.874,0,0,1-9.435-1.676c-6.424-2.063-10.634-5.541-12.512-10.338a15.156,15.156,0,0,1-.465-9.612,15.741,15.741,0,0,1,3.528-6.343,17.15,17.15,0,0,1,5.931-4.2c5.986-2.59,14.044-2.319,21.03.708a12.99,12.99,0,0,1,1.447.738.114.114,0,0,1-.012.2c-.186.083-.372.169-.566.265a17.632,17.632,0,0,0-5.869,4.632,18.225,18.225,0,0,0-3.547,6.914,17.962,17.962,0,0,0,.311,10.385,15.858,15.858,0,0,0,5.357,7.462.115.115,0,0,1-.041.2,19.937,19.937,0,0,1-5.156.659m-3.761-33.708a23.029,23.029,0,0,0-9.1,1.75,16.919,16.919,0,0,0-5.853,4.143,15.517,15.517,0,0,0-3.477,6.252,14.928,14.928,0,0,0,.458,9.466c1.852,4.73,6.013,8.163,12.369,10.2,5.543,1.782,10.077,2.124,14.241,1.071a16.055,16.055,0,0,1-5.251-7.425,18.192,18.192,0,0,1-.315-10.519,18.452,18.452,0,0,1,3.592-7,17.859,17.859,0,0,1,5.944-4.691c.127-.062.249-.121.371-.177a12.844,12.844,0,0,0-1.23-.614,29.86,29.86,0,0,0-11.747-2.459" transform="translate(-897.068 -146.162)" fill="#231f20"/>
    <path id="Tracé_1973" data-name="Tracé 1973" d="M1212.1,223.484a.114.114,0,0,1-.07-.024,16.085,16.085,0,0,1-5.432-7.568,18.194,18.194,0,0,1-.315-10.519,18.448,18.448,0,0,1,3.592-7,17.855,17.855,0,0,1,5.944-4.691c.2-.1.385-.185.575-.269a.114.114,0,0,1,.1.006,15.2,15.2,0,0,1,6.306,7.732,20.084,20.084,0,0,1,1.151,10.093,13.715,13.715,0,0,1-3.388,7.333,14.931,14.931,0,0,1-3.769,2.99c-.608.343-1.227.653-1.839.922a19.316,19.316,0,0,1-2.828.993.116.116,0,0,1-.029,0m4.331-29.839c-.168.076-.337.155-.512.241a17.628,17.628,0,0,0-5.869,4.632,18.225,18.225,0,0,0-3.547,6.914,17.962,17.962,0,0,0,.31,10.385,15.852,15.852,0,0,0,5.312,7.427,19.116,19.116,0,0,0,2.74-.966c.605-.266,1.217-.573,1.818-.912a14.7,14.7,0,0,0,3.712-2.943,13.49,13.49,0,0,0,3.332-7.214,19.852,19.852,0,0,0-1.138-9.976,14.987,14.987,0,0,0-6.158-7.588" transform="translate(-1074.409 -172.349)" fill="#231f20"/>
    <path id="Tracé_1974" data-name="Tracé 1974" d="M1212.1,223.484a.114.114,0,0,1-.07-.024,16.085,16.085,0,0,1-5.432-7.568,18.194,18.194,0,0,1-.315-10.519,18.448,18.448,0,0,1,3.592-7,17.855,17.855,0,0,1,5.944-4.691c.2-.1.385-.185.575-.269a.114.114,0,0,1,.1.006,15.2,15.2,0,0,1,6.306,7.732,20.084,20.084,0,0,1,1.151,10.093,13.715,13.715,0,0,1-3.388,7.333,14.931,14.931,0,0,1-3.769,2.99c-.608.343-1.227.653-1.839.922a19.316,19.316,0,0,1-2.828.993.116.116,0,0,1-.029,0m4.331-29.839c-.168.076-.337.155-.512.241a17.628,17.628,0,0,0-5.869,4.632,18.225,18.225,0,0,0-3.547,6.914,17.962,17.962,0,0,0,.31,10.385,15.852,15.852,0,0,0,5.312,7.427,19.116,19.116,0,0,0,2.74-.966c.605-.266,1.217-.573,1.818-.912a14.7,14.7,0,0,0,3.712-2.943,13.49,13.49,0,0,0,3.332-7.214,19.852,19.852,0,0,0-1.138-9.976,14.987,14.987,0,0,0-6.158-7.588" transform="translate(-1074.409 -172.349)" fill="#231f20"/>
    <path id="Tracé_1975" data-name="Tracé 1975" d="M1040.019,1157.986" transform="translate(-926.806 -1031.932)" fill="#efe9e0"/>
    <path id="Tracé_1976" data-name="Tracé 1976" d="M252.124,1124.669a7.953,7.953,0,0,0,2.445,1.8,7.688,7.688,0,0,0,3.941-1.159,12.6,12.6,0,0,0,5.473-6.542l3.844-10.23c.343.468.715.942,1.125,1.423l28.284,22.835c6.218,6.193,11.691,8.372,17.259,6.559a13.674,13.674,0,0,0,9.079-10.425l11.612-55.374-26.06-10.313-8.182,46.107-20.053-14.977a12.812,12.812,0,0,0-1.446-.73h0l-11.312-8.66c-.044-.019-.089-.04-.133-.061-.293-.138-.59-.258-.888-.365a9.859,9.859,0,0,0-10.106,6.111c-3.408,8.412-6.263,16.566-7.7,24.059a11.285,11.285,0,0,0,2.824,9.945" transform="translate(-221.973 -947.5)" fill="#fff"/>
    <path id="Tracé_1977" data-name="Tracé 1977" d="M309.781,1146.136c-4.292,0-8.688-2.355-13.558-7.2L267.944,1116.1a.108.108,0,0,1-.015-.015c-.35-.411-.68-.825-1-1.26l-3.77,10.033a12.733,12.733,0,0,1-5.524,6.6,7.826,7.826,0,0,1-4,1.174.114.114,0,0,1-.045-.01,8.1,8.1,0,0,1-2.481-1.824,11.407,11.407,0,0,1-2.853-10.045c1.261-6.558,3.712-14.21,7.711-24.081a10.01,10.01,0,0,1,10.224-6.182.11.11,0,0,1,.027.006c.326.117.62.238.9.369.043.02.087.041.129.059a.116.116,0,0,1,.025.015l11.3,8.655a12.951,12.951,0,0,1,1.441.729l.01.007,19.9,14.866,8.028-45.071a.114.114,0,1,1,.225.04l-8.06,45.254a.115.115,0,0,1-.181.072l-20.048-14.974a12.746,12.746,0,0,0-1.428-.72.109.109,0,0,1-.038-.026l-11.286-8.64c-.041-.018-.082-.037-.124-.057-.268-.126-.551-.243-.865-.356a9.781,9.781,0,0,0-9.975,6.041c-3.994,9.857-6.44,17.495-7.7,24.038a11.178,11.178,0,0,0,2.794,9.844,7.89,7.89,0,0,0,2.388,1.764,7.662,7.662,0,0,0,3.858-1.144,12.5,12.5,0,0,0,5.423-6.483l3.844-10.23a.114.114,0,0,1,.2-.027c.36.491.724.952,1.113,1.409l28.275,22.828.009.008c6.253,6.228,11.7,8.3,17.143,6.532a13.544,13.544,0,0,0,9-10.339l11.612-55.375a.114.114,0,0,1,.224.047L322.75,1135a13.772,13.772,0,0,1-9.155,10.511,12.242,12.242,0,0,1-3.813.621" transform="translate(-221.037 -953.552)" fill="#231f20"/>
    <path id="Tracé_1978" data-name="Tracé 1978" d="M666.264,411.983c-5.43.455-11.775,5.3-18.858,13.7L632.94,436.2a9.619,9.619,0,0,0-1.209,14.521l8.76,8.921Z" transform="translate(-560.507 -367.136)" fill="#fff"/>
    <path id="Tracé_1979" data-name="Tracé 1979" d="M639.555,458.817a.115.115,0,0,1-.082-.034l-8.76-8.921a9.734,9.734,0,0,1,1.224-14.694l14.455-10.5a61.588,61.588,0,0,1,10.059-9.837c3.206-2.359,6.189-3.67,8.867-3.894a.115.115,0,0,1,.11.169l-25.774,47.655a.115.115,0,0,1-.085.059h-.016m25.571-47.636c-2.581.271-5.453,1.559-8.539,3.83a61.377,61.377,0,0,0-10.029,9.811.115.115,0,0,1-.02.019l-14.466,10.511a9.5,9.5,0,0,0-1.2,14.349l8.651,8.811Z" transform="translate(-559.571 -366.2)" fill="#231f20"/>
    <path id="Tracé_1980" data-name="Tracé 1980" d="M629.723,412.257l-21.668-5.868c-6.524-3.087-12.41-1.853-16.513,11.476l-12.493,21.177-9.567,12.181a32.783,32.783,0,0,0-15.625,17.614l52.922,18.114L617.6,464.4l12.25-18.122,4.241-5.484,8.759-22.508c-2.109-3.7-6.959-5.357-13.123-6.032" transform="translate(-493.566 -360.898)" fill="#fff"/>
    <path id="Tracé_1981" data-name="Tracé 1981" d="M743.726,843.882a.115.115,0,0,1-.035-.005l-47.273-14.934a.114.114,0,1,1,.069-.218l47.273,14.934a.114.114,0,0,1-.034.224" transform="translate(-620.537 -738.508)" fill="#231f20"/>
    <path id="Tracé_1982" data-name="Tracé 1982" d="M605.841,486.144a.115.115,0,0,1-.1-.164l10.817-22.549.008-.015,12.25-18.122,4.235-5.477,8.733-22.442c-1.9-3.28-6.035-5.164-13.009-5.928l-.018,0-21.668-5.867-.019-.007c-3.282-1.553-6.019-1.8-8.368-.77-3.3,1.454-5.913,5.437-7.987,12.176a.112.112,0,0,1-.011.025L578.21,438.178l-.009.013-9.567,12.181a.116.116,0,0,1-.035.03c-7.644,4.23-12.593,9.808-15.573,17.555a.114.114,0,1,1-.214-.082c3-7.794,7.973-13.406,15.656-17.662l9.548-12.157L590.5,416.9c2.094-6.8,4.747-10.824,8.11-12.306,2.411-1.062,5.207-.811,8.549.768l21.649,5.863c7.081.777,11.276,2.712,13.2,6.088a.115.115,0,0,1,.007.1l-8.759,22.508a.111.111,0,0,1-.016.029L629,445.428l-12.241,18.109-10.814,22.541a.115.115,0,0,1-.1.065" transform="translate(-492.629 -359.975)" fill="#231f20"/>
    <path id="Tracé_1983" data-name="Tracé 1983" d="M1348.573,542.746l-9.187,21.056-1.617,3.706c-3.89,4.064-8.809,5.418-15.135,3.065q-1.134-.422-2.327-1l-29.424-19.845,8.758-22.508c4.5,1.9,9.876,7.443,15.526,14.123l8.405,7.176,7.447-16.866c1.618-2.883,3.819-3.687,6.067-4.323l12.929,7.156c.419,1.709-.093,4.5-1.443,8.261" transform="translate(-1150.362 -469.828)" fill="#fff"/>
    <path id="Tracé_1984" data-name="Tracé 1984" d="M1327.562,570.9a16.988,16.988,0,0,1-5.9-1.159c-.753-.28-1.539-.619-2.337-1.007l-.014-.008-29.424-19.845a.114.114,0,0,1-.043-.136l8.758-22.508a.114.114,0,0,1,.062-.064.113.113,0,0,1,.089,0c4.961,2.1,10.922,8.661,15.563,14.148l8.281,7.07,7.385-16.726,0-.01c1.628-2.9,3.831-3.726,6.135-4.377a.114.114,0,0,1,.086.01l12.929,7.156a.115.115,0,0,1,.056.073c.415,1.693-.071,4.495-1.446,8.327l0,.007-10.8,24.763a.11.11,0,0,1-.022.033,13.233,13.233,0,0,1-6.712,3.972,12.236,12.236,0,0,1-2.641.281m-8.135-2.368c.789.383,1.566.718,2.309.995a14.886,14.886,0,0,0,8.417.869,13,13,0,0,0,6.582-3.892l10.794-24.741c1.345-3.75,1.832-6.49,1.449-8.143l-12.844-7.109c-2.238.635-4.376,1.449-5.95,4.251l-7.444,16.861a.114.114,0,0,1-.179.041l-8.405-7.176-.013-.013c-8.684-10.267-12.786-12.927-15.375-14.046l-8.682,22.313Zm28.208-26.726h0Z" transform="translate(-1149.425 -468.891)" fill="#231f20"/>
    <path id="Tracé_1985" data-name="Tracé 1985" d="M1591.954,744.608a.115.115,0,0,1-.114-.106l-1.7-22.551a.114.114,0,0,1,.206-.077l14.2,18.992a.114.114,0,1,1-.183.137L1590.4,722.326l1.672,22.159a.114.114,0,0,1-.106.123h-.008" transform="translate(-1417.041 -643.253)" fill="#231f20"/>
    <path id="Tracé_1986" data-name="Tracé 1986" d="M1599.312,847.042l-1.617,3.706c-3.89,4.064-8.809,5.418-15.135,3.065a10.714,10.714,0,0,1,10.884-8.751,10.447,10.447,0,0,1,1.163.1,10.659,10.659,0,0,1,4.7,1.877" transform="translate(-1410.288 -753.067)" fill="#fff"/>
    <path id="Tracé_1987" data-name="Tracé 1987" d="M1587.489,854.145a16.987,16.987,0,0,1-5.9-1.159.115.115,0,0,1-.073-.128,10.829,10.829,0,0,1,11-8.844,10.627,10.627,0,0,1,1.175.1,10.85,10.85,0,0,1,4.755,1.9.115.115,0,0,1,.038.139l-1.617,3.706a.109.109,0,0,1-.022.033,13.233,13.233,0,0,1-6.712,3.972,12.236,12.236,0,0,1-2.641.281m-5.735-1.34a14.826,14.826,0,0,0,8.326.836,13,13,0,0,0,6.582-3.892l1.572-3.6a10.624,10.624,0,0,0-4.579-1.8,10.385,10.385,0,0,0-1.15-.1,10.6,10.6,0,0,0-10.75,8.563" transform="translate(-1409.351 -752.132)" fill="#231f20"/>
    <path id="Tracé_1988" data-name="Tracé 1988" d="M1715.322,509.129l1.263-2.333,13.109,7.835-1.336,2.289Z" transform="translate(-1528.598 -451.628)" fill="#fff"/>
    <path id="Tracé_1989" data-name="Tracé 1989" d="M1727.421,516.1a.114.114,0,0,1-.059-.016l-13.037-7.791a.115.115,0,0,1-.042-.153l1.263-2.333a.114.114,0,0,1,.159-.044l13.109,7.835a.115.115,0,0,1,.04.156l-1.335,2.289a.115.115,0,0,1-.07.053.118.118,0,0,1-.029,0m-12.884-7.948,12.843,7.676,1.22-2.092-12.909-7.716Z" transform="translate(-1527.661 -450.691)" fill="#231f20"/>
    <path id="Tracé_1990" data-name="Tracé 1990" d="M1239.5,438.084a19.091,19.091,0,0,1-2.812.987,16.478,16.478,0,0,1-3.44-3.619l2.309.678.609.179a5.28,5.28,0,0,0,2.431.128Z" transform="translate(-1099.005 -388.05)" fill="#231f20"/>
    <path id="Tracé_1991" data-name="Tracé 1991" d="M1236.932,436.472l-1.03,1.943a16.193,16.193,0,0,1-2.649-2.963l2.309.678.609.179a5.388,5.388,0,0,0,.76.164" transform="translate(-1099.005 -388.05)" fill="#fff"/>
    <path id="Tracé_1992" data-name="Tracé 1992" d="M1234.965,437.593a.115.115,0,0,1-.076-.029,16.386,16.386,0,0,1-2.668-2.984.114.114,0,0,1,.126-.175l2.918.856a5.292,5.292,0,0,0,.744.16.115.115,0,0,1,.085.167l-1.03,1.943a.114.114,0,0,1-.081.059l-.021,0m-2.366-2.875a16.2,16.2,0,0,0,2.333,2.579l.886-1.673a5.488,5.488,0,0,1-.617-.142Z" transform="translate(-1098.068 -387.113)" fill="#231f20"/>
    <path id="Tracé_1993" data-name="Tracé 1993" d="M1235.757,438.249a.114.114,0,0,1-.07-.024,16.659,16.659,0,0,1-3.464-3.644.114.114,0,0,1,.126-.175l2.918.856a5.189,5.189,0,0,0,2.378.125.115.115,0,0,1,.121.058l.9,1.648a.114.114,0,0,1-.054.16,19.315,19.315,0,0,1-2.828.993.112.112,0,0,1-.029,0m-3.157-3.531a16.5,16.5,0,0,0,3.183,3.291,19.087,19.087,0,0,0,2.625-.916l-.8-1.466a5.421,5.421,0,0,1-2.4-.145Z" transform="translate(-1098.069 -387.114)" fill="#231f20"/>
    <path id="Tracé_1994" data-name="Tracé 1994" d="M298.572,1303.116a.573.573,0,0,1-.082-.006.114.114,0,0,1,.032-.227c.427.061,1.768-.633,4.989-8.375a171.32,171.32,0,0,0,6.813-20.272c1.948-7.339,2.51-11.967,1.544-12.7a.114.114,0,1,1,.138-.183c.575.434.7,1.859.371,4.354a72.134,72.134,0,0,1-1.831,8.584,171.6,171.6,0,0,1-6.823,20.3,52.614,52.614,0,0,1-2.956,6.192c-.922,1.564-1.641,2.328-2.195,2.328" transform="translate(-265.909 -1124.029)" fill="#231f20"/>
    <path id="Tracé_1995" data-name="Tracé 1995" d="M50,1215.362a.61.61,0,0,1-.082-.006.114.114,0,0,1,.032-.227c.428.062,1.767-.633,4.989-8.374a171.31,171.31,0,0,0,6.813-20.272c1.948-7.339,2.51-11.968,1.544-12.7a.114.114,0,0,1,.138-.183c.575.435.7,1.859.371,4.355a72.113,72.113,0,0,1-1.831,8.585,171.586,171.586,0,0,1-6.823,20.3,52.636,52.636,0,0,1-2.956,6.191c-.922,1.564-1.641,2.327-2.195,2.327" transform="translate(-44.401 -1045.828)" fill="#231f20"/>
    <path id="Tracé_1996" data-name="Tracé 1996" d="M1739.1,293.692a.115.115,0,0,1-.059-.016l-13.109-7.835a.114.114,0,0,1-.047-.143c1.084-2.545,2.171-5.2,3.222-7.762s2.139-5.218,3.223-7.765a16.885,16.885,0,0,1,2.657-4.744,13.521,13.521,0,0,1,3.377-2.591,62.621,62.621,0,0,1,7.751-3.586,4.718,4.718,0,0,1,2.167-.5,1.691,1.691,0,0,1,1.607,1.44c.052,1.117-1.286,2.063-2.361,2.823-.314.222-.61.431-.819.612-1.171,1.009-2.316,2.073-3.409,3.168a2.9,2.9,0,0,1,1.547.1,2.564,2.564,0,0,1,1.607,1.445,4.53,4.53,0,0,1,0,2.812,3.216,3.216,0,0,1,2.143-.554,2.488,2.488,0,0,1,2.076,1.632,2.8,2.8,0,0,1,.1.886,4.585,4.585,0,0,1-.392,1.751,3.075,3.075,0,0,1,3.4,2.05,6.659,6.659,0,0,1-.3,4.467,19.051,19.051,0,0,1-1.145,2.654,4.883,4.883,0,0,1-1.77,2.1,2.107,2.107,0,0,1-2.513-.245c-2.941,4.268-5.654,7.782-8.965,7.807Zm-12.965-8,13,7.767c3.219-.048,5.9-3.575,8.831-7.831a.114.114,0,0,1,.092-.049.113.113,0,0,1,.094.046,1.849,1.849,0,0,0,2.319.3,4.68,4.68,0,0,0,1.679-2,18.815,18.815,0,0,0,1.131-2.622,6.452,6.452,0,0,0,.3-4.315,2.84,2.84,0,0,0-3.364-1.842.114.114,0,0,1-.137-.161,4.352,4.352,0,0,0,.476-1.88,2.581,2.581,0,0,0-.094-.814,2.256,2.256,0,0,0-1.887-1.472,3.185,3.185,0,0,0-2.226.663.114.114,0,0,1-.171-.124,4.735,4.735,0,0,0,.075-2.935,2.333,2.333,0,0,0-1.462-1.315,2.218,2.218,0,0,0-1.919.125.114.114,0,0,1-.145-.175c1.223-1.25,2.516-2.464,3.843-3.607.218-.187.518-.4.836-.625,1.029-.728,2.31-1.634,2.264-2.626a1.481,1.481,0,0,0-1.4-1.222,4.539,4.539,0,0,0-2.06.484,62.456,62.456,0,0,0-7.723,3.572,13.307,13.307,0,0,0-3.321,2.545,16.712,16.712,0,0,0-2.618,4.682c-1.084,2.545-2.171,5.2-3.222,7.762-1.039,2.534-2.112,5.154-3.184,7.673" transform="translate(-1538.002 -230.574)" fill="#231f20"/>
    <path id="Tracé_1997" data-name="Tracé 1997" d="M1928.692,453.445a.112.112,0,0,1-.057-.016.115.115,0,0,1-.042-.156l3.7-6.365a.114.114,0,0,1,.2.115l-3.7,6.365a.114.114,0,0,1-.1.057" transform="translate(-1718.639 -398.209)" fill="#231f20"/>
    <path id="Tracé_1998" data-name="Tracé 1998" d="M1863.426,336.617a.114.114,0,0,1-.074-.2l1.848-1.551a.114.114,0,1,1,.147.175l-1.848,1.551a.114.114,0,0,1-.073.027" transform="translate(-1660.477 -298.388)" fill="#231f20"/>
    <path id="Tracé_1999" data-name="Tracé 1999" d="M1901.9,374.954a.114.114,0,0,1-.07-.2l1.141-.883a.114.114,0,1,1,.14.181l-1.141.883a.115.115,0,0,1-.07.024" transform="translate(-1694.76 -333.148)" fill="#231f20"/>
    <path id="Tracé_2000" data-name="Tracé 2000" d="M1934.785,408.963a.115.115,0,0,1-.077-.2l1.454-1.337a.114.114,0,0,1,.155.168l-1.454,1.338a.114.114,0,0,1-.078.03" transform="translate(-1724.069 -363.049)" fill="#231f20"/>
    <path id="Tracé_2001" data-name="Tracé 2001" d="M636.572,910.811a.112.112,0,0,1-.037-.006l-3.755-1.285a35.442,35.442,0,0,1-10.67-7.209c-2.693-2.652-6.069-6.906-6.853-12.117a.114.114,0,0,1,.226-.034c.775,5.148,4.119,9.361,6.787,11.988a35.2,35.2,0,0,0,10.591,7.159l3.7,1.265a28.483,28.483,0,0,1,13.861-4.136,48.035,48.035,0,0,1,16.057,2.37.114.114,0,0,1-.067.219,47.818,47.818,0,0,0-15.979-2.36,28.248,28.248,0,0,0-13.8,4.131.115.115,0,0,1-.06.017" transform="translate(-548.281 -793.173)" fill="#231f20"/>
    <path id="Tracé_2002" data-name="Tracé 2002" d="M727.555,1665.664a.122.122,0,0,1-.029,0,.114.114,0,0,1-.082-.139,11,11,0,0,1,7.249-7.645,14.522,14.522,0,0,1,7.163-.548,16.879,16.879,0,0,1,7.34,3.211.114.114,0,1,1-.138.182,16.648,16.648,0,0,0-7.24-3.168,14.294,14.294,0,0,0-7.05.539,10.776,10.776,0,0,0-7.1,7.486.114.114,0,0,1-.111.086" transform="translate(-648.254 -1476.726)" fill="#231f20"/>
    <path id="Tracé_2003" data-name="Tracé 2003" d="M732.662,1505.185a.114.114,0,0,1-.105-.07l-8.142-19.208a.114.114,0,1,1,.211-.089l8.142,19.208a.114.114,0,0,1-.061.15.113.113,0,0,1-.045.009" transform="translate(-645.549 -1324.015)" fill="#231f20"/>
    <path id="Tracé_2004" data-name="Tracé 2004" d="M627.5,426.071l26.989-39.314c3.389-4.382,6.794-5.75,10.208-5.258l27.68,7.14c4.99,1.278,6.181,4.613,4.523,10.214l-25.472,42.955a9.745,9.745,0,0,1-11.462,4.275l-28.99-9.657a6.837,6.837,0,0,1-3.476-10.355" transform="translate(-558.123 -339.886)" fill="#fff"/>
    <path id="Tracé_2005" data-name="Tracé 2005" d="M662.008,445.681a9.871,9.871,0,0,1-3.118-.5l-28.99-9.657a6.961,6.961,0,0,1-3.539-10.544l26.989-39.314c3.185-4.119,6.562-5.854,10.328-5.311l.013,0,27.68,7.14a6.816,6.816,0,0,1,4.571,3.015c.981,1.728.994,4.134.04,7.355a.131.131,0,0,1-.012.028L670.5,440.848a9.86,9.86,0,0,1-8.491,4.834m-35.544-20.635.1.071a6.712,6.712,0,0,0,3.412,10.166l28.99,9.657a9.621,9.621,0,0,0,11.315-4.221l25.464-42.942c.929-3.145.921-5.483-.023-7.146a6.585,6.585,0,0,0-4.416-2.9L663.635,380.6c-3.667-.526-6.965,1.179-10.084,5.212l-26.985,39.308Z" transform="translate(-557.083 -338.861)" fill="#231f20"/>
    <path id="Tracé_2006" data-name="Tracé 2006" d="M934.576,514a.123.123,0,0,1-.065-.018.125.125,0,0,1-.042-.171l28.786-47.25c2.429-5.787,4.872-9.18,6.532-9.081a.125.125,0,1,1-.015.249c-1.5-.093-3.975,3.418-6.291,8.938a.121.121,0,0,1-.009.017l-28.791,47.258a.124.124,0,0,1-.107.06" transform="translate(-832.73 -407.677)" fill="#231f20"/>
    <path id="Tracé_2007" data-name="Tracé 2007" d="M999.718,427.6a.122.122,0,0,1-.031,0l-8.9-2.3a.125.125,0,0,1-.066-.2l3.145-3.892a.124.124,0,0,1,.128-.042l8.586,2.175a.125.125,0,0,1,.071.193l-2.827,4.017a.125.125,0,0,1-.1.053m-8.684-2.5,8.632,2.23,2.673-3.8-8.333-2.111Z" transform="translate(-882.847 -375.308)" fill="#231f20"/>
    <path id="Tracé_2008" data-name="Tracé 2008" d="M1028.063,207.495a12.627,12.627,0,0,0-1.17,4.668,4.239,4.239,0,0,0,.1,1.573,1.45,1.45,0,0,0,1.086,1.04,1.507,1.507,0,0,0,1.455-.944,5.977,5.977,0,0,0,.38-1.809,11.26,11.26,0,0,1,3.957-7.135,6.273,6.273,0,0,0,1.1-1.016,1.377,1.377,0,0,0-.539-2.213c-.849-.226-1.8.671-2.412,1.136a12.818,12.818,0,0,0-3.951,4.7" transform="translate(-915.084 -179.676)" fill="#7aea92"/>
    <path id="Tracé_2009" data-name="Tracé 2009" d="M1027.287,213.965a1.188,1.188,0,0,1-.167-.012,1.551,1.551,0,0,1-1.179-1.118,4.359,4.359,0,0,1-.1-1.616,12.3,12.3,0,0,1,5.166-9.452c.083-.063.172-.134.266-.209.614-.488,1.455-1.156,2.244-.947a1.23,1.23,0,0,1,.873.8,1.79,1.79,0,0,1-.272,1.59,5.018,5.018,0,0,1-.909.868l-.207.168a11.138,11.138,0,0,0-3.917,7.062c-.014.1-.026.21-.039.315a4.836,4.836,0,0,1-.352,1.528,1.686,1.686,0,0,1-1.407,1.02m5.922-13.163a3.423,3.423,0,0,0-1.794.936c-.1.076-.186.148-.27.212a12.074,12.074,0,0,0-5.076,9.284,4.183,4.183,0,0,0,.09,1.531,1.342,1.342,0,0,0,.993.962,1.4,1.4,0,0,0,1.335-.88,4.675,4.675,0,0,0,.331-1.456c.013-.106.025-.213.039-.318a11.369,11.369,0,0,1,4-7.209l.209-.17a4.846,4.846,0,0,0,.869-.826,1.553,1.553,0,0,0,.239-1.378.994.994,0,0,0-.715-.656.964.964,0,0,0-.249-.032m-6.084,5.756h0Z" transform="translate(-914.146 -178.74)" fill="#231f20"/>
    <path id="Tracé_2010" data-name="Tracé 2010" d="M1032.062,336.9c.07-1.144-.5-2.735-1.405-2.782-.588-.03-.983.648-.966,1.236.023.819.33,2.34,1.265,2.644.722.236,1.059-.331,1.107-1.1" transform="translate(-917.601 -297.75)" fill="#7aea92"/>
    <path id="Tracé_2011" data-name="Tracé 2011" d="M1030.329,337.235a1.122,1.122,0,0,1-.347-.06c-1.012-.33-1.321-1.943-1.344-2.75a1.519,1.519,0,0,1,.42-1.086.877.877,0,0,1,.667-.268,1.107,1.107,0,0,1,.768.413,3.737,3.737,0,0,1,.746,2.49,1.467,1.467,0,0,1-.483,1.133.742.742,0,0,1-.426.128m-.647-3.936a.667.667,0,0,0-.464.2,1.281,1.281,0,0,0-.351.916c.024.873.36,2.27,1.186,2.539a.635.635,0,0,0,.574-.039,1.228,1.228,0,0,0,.384-.958,3.542,3.542,0,0,0-.688-2.323.888.888,0,0,0-.609-.337h-.031" transform="translate(-916.664 -296.813)" fill="#231f20"/>
  </g>
</svg>
