<svg xmlns="http://www.w3.org/2000/svg" width="344.369" height="269.607" viewBox="0 0 344.369 269.607">
  <g id="qSCcrwzdhhOYqc5lLxrE17oiXc" transform="translate(-0.947 -0.049)">
    <path id="Tracé_1" data-name="Tracé 1" d="M22.493,126.755a46.037,46.037,0,0,1-15.167-18.8c-.8-1.838-1.377-4.259.09-5.626,1.223-1.135,3.147-.837,4.775-.461,25.086,5.8,49.508,13.562,74.585,19.191,29.727,6.674,59.981,6.7,90.161,3.44,9.425-1.019,18.488-3.352,27.8-4.944,9.063-1.548,18.173-2.9,27.188-4.9A377.935,377.935,0,0,0,308.19,88.923c1.268,1.571.46,3.89-.429,5.7a143.2,143.2,0,0,1-18.716,28.722c-3.244,3.879-6.656,8.748-10.595,11.84a87.057,87.057,0,0,1-15.4,9.49c-18.213,8.932-38.658,12.536-58.726,14.232a434.328,434.328,0,0,1-134.733-9.755" transform="translate(1.582 25.275)" fill="#9af8bc"/>
    <path id="Tracé_2" data-name="Tracé 2" d="M23.369,126.162A45.188,45.188,0,0,1,9.735,109.618c-.645-1.323-2.537-4.6-.993-5.92.75-.642,2.1-.344,2.962-.171,1.385.283,2.761.649,4.136.983q4.148,1,8.284,2.07c5.506,1.413,10.994,2.9,16.475,4.393,21.794,5.967,43.66,12.558,66.118,15.494s45.15,2.538,67.612.28c11.1-1.117,21.9-3.752,32.875-5.6s22.008-3.686,32.872-6.333a380.289,380.289,0,0,0,61.768-20.844q3.749-1.631,7.461-3.346l-2.176-.569c1.088,1.559-.173,3.592-.906,5.058a142.943,142.943,0,0,1-9.5,16.206q-3.655,5.39-7.794,10.427c-2.461,2.984-4.788,6.1-7.392,8.961-5.6,6.163-13.449,10.4-20.924,13.883a126.229,126.229,0,0,1-24.208,8.245c-16.805,4.027-34.188,5.383-51.418,6.05a434.98,434.98,0,0,1-54.448-1.3A432.3,432.3,0,0,1,70.3,148.09c-1.85-.428-2.639,2.419-.786,2.849A436.591,436.591,0,0,0,181.5,162.178c17.938-.543,36.077-1.812,53.622-5.778a136.707,136.707,0,0,0,24.614-7.935,102.9,102.9,0,0,0,11.905-6.112,56.669,56.669,0,0,0,10.407-7.587c3.241-3.154,5.9-6.866,8.78-10.342q4.589-5.532,8.631-11.485a142.706,142.706,0,0,0,7.515-12.4c1.754-3.262,5.438-8.386,2.9-12.08a1.65,1.65,0,0,0-2.176-.572,376.255,376.255,0,0,1-63.272,22.554c-11.14,2.9-22.374,5.042-33.713,6.92s-22.605,4.742-34.051,5.971c-23.027,2.465-46.36,3-69.37.04-23.16-2.976-45.642-9.98-68.15-15.969q-8.524-2.281-17.089-4.4-4.293-1.057-8.6-2.049c-2-.456-4.281-.945-6.139.236-3.989,2.538-.861,8.138.767,11.089a46.974,46.974,0,0,0,8.665,11.237,49.521,49.521,0,0,0,5.524,4.531c1.161.823,2.209-1.058,1.088-1.885h.014Z" transform="translate(1.257 24.925)" fill="#071227"/>
    <path id="Tracé_3" data-name="Tracé 3" d="M105.221,96.646c10.73-4.65,45.9-12.2,56.628-16.849,5.186-2.248,10.744-4.547,16.312-3.578,7.348,1.277,12.536,7.835,16.168,14.344,6.888,12.351,10.753,26.1,13.387,39.9,1.255,6.584,3.477,14.312,3.306,21.026-.155,6.363-5.387,9.484-10.937,11.557a122.422,122.422,0,0,1-42.519,7.732c-3.458,0-7-.148-10.2-1.472-5.075-2.095-8.522-6.767-12.021-11-8.37-10.151-20-19.43-33.118-18.489" transform="translate(28.803 21.598)" fill="#fff"/>
    <path id="Tracé_4" data-name="Tracé 4" d="M106.214,97.964c5.582-2.393,11.633-3.857,17.473-5.438,7.573-2.063,15.178-3.988,22.744-6.075a141.963,141.963,0,0,0,17.726-5.8c5.116-2.176,10.811-4.183,16.313-2.287,4.35,1.494,7.736,5.075,10.3,8.758,6.091,8.762,9.737,19.3,12.492,29.526,1.45,5.333,2.484,10.735,3.578,16.146,1.054,5.2,2.425,10.387,2.795,15.7.155,2.212.3,4.579-.7,6.631a10.179,10.179,0,0,1-3.625,3.933c-4.155,2.765-9.357,4.132-14.095,5.5a120.172,120.172,0,0,1-33.713,4.714,26.277,26.277,0,0,1-8.076-.972,16.447,16.447,0,0,1-6.058-3.756c-3.5-3.262-6.209-7.275-9.453-10.777-6.457-6.96-14.668-13.329-24.216-15.088a27.718,27.718,0,0,0-7.1-.412c-2.317.17-2.357,3.77,0,3.625,10.212-.555,19.176,5,26.259,11.883,3.564,3.461,6.482,7.438,9.81,11.1,3.585,3.947,7.8,6.837,13.166,7.595,5.775.812,11.861.33,17.64-.236a126.585,126.585,0,0,0,17.316-2.9,99.6,99.6,0,0,0,16.44-5.285c3.925-1.719,7.652-4.35,9.178-8.508a16.841,16.841,0,0,0,.573-7.065,69.144,69.144,0,0,0-1.236-8.337q-1.625-8.19-3.463-16.335a126.082,126.082,0,0,0-11.633-32.264c-4.535-8.395-11.571-17.306-22.175-16.486-5.049.392-9.479,2.646-14.112,4.434-2.759,1.066-5.6,1.936-8.428,2.781-7.613,2.27-15.331,4.255-23.013,6.322-6.887,1.852-13.841,3.626-20.568,6.021q-1.705.6-3.368,1.316c-1.406.6-.193,2.66,1.207,2.063l.014-.022Z" transform="translate(28.412 21.315)" fill="#071227"/>
    <path id="Tracé_5" data-name="Tracé 5" d="M97.923,98.63c-15.37,4.129-22.45,18.738-21.026,33.8a26.639,26.639,0,0,0,3.027,11.024,23.569,23.569,0,0,0,6.942,7.175c10.676,7.551,24.5,7.844,37.142,8.7,14.362.957,29.058.04,42.7-4.864,5.906-2.121,11.732-5.108,15.686-9.984s5.655-11.963,2.856-17.582c-4.828-9.7-17.437-12.54-27.188-14.318-11.5-2.1-18.394-.773-30.045-.758" transform="translate(21.549 28.036)" fill="#fff"/>
    <path id="Tracé_6" data-name="Tracé 6" d="M97.9,97.838a28.85,28.85,0,0,0-16.813,12.191,35.793,35.793,0,0,0-5.243,20.246,32.015,32.015,0,0,0,2.7,12.884c1.888,3.915,5.21,6.956,8.776,9.338,7.229,4.818,15.9,6.584,24.389,7.479,18.851,1.947,38.55,2.516,56.552-4.227,7.935-2.968,15.754-7.762,18.85-16.051a16.988,16.988,0,0,0,.225-11.923,19.916,19.916,0,0,0-6.67-8.487c-5.691-4.349-12.96-6.163-19.862-7.5a81.761,81.761,0,0,0-12.9-1.573c-4.2-.141-8.4.076-12.593.247-2.356.1-4.712.175-7.072.2a1.413,1.413,0,0,0,0,2.823c8.164.03,16.349-.83,24.495.033a93.858,93.858,0,0,1,11.066,1.942,53.108,53.108,0,0,1,9.472,2.97c6.076,2.672,12.1,7.613,12.108,14.815,0,8.338-6.493,14.348-13.437,17.8-7.976,3.958-17.063,5.956-25.873,6.888-8.936.939-17.839.554-26.782,0-8.026-.5-16.212-1.139-23.8-3.988a33.027,33.027,0,0,1-10.505-6.322,19.634,19.634,0,0,1-6.115-11.02c-2.7-13.311,1.811-28.562,14.642-34.852A28.473,28.473,0,0,1,98.473,99.9a1.069,1.069,0,0,0-.569-2.059Z" transform="translate(21.297 27.798)" fill="#071227"/>
    <path id="Tracé_7" data-name="Tracé 7" d="M113.514,120.722c4.922.308,9.841.762,14.728,1.45,4.792.685,9.483,1.783,14.243,2.632a.674.674,0,0,0,.362-1.3,103.935,103.935,0,0,0-14.43-2.618,143.513,143.513,0,0,0-14.9-1.193.51.51,0,0,0,0,1.019l0,.008Z" transform="translate(31.875 34.027)" fill="#4ade80"/>
    <path id="Tracé_8" data-name="Tracé 8" d="M157.783,176.1c-31.784.486-63.608.181-95.371-1.16-5.659-.239-14.065-.167-18.56-4.14-6-5.307-10.96-12.593-15.422-19.188-9.118-13.475-16.251-28.185-22.559-43.139A4.81,4.81,0,0,1,5.316,106a1.679,1.679,0,0,1,1.708-1.536c.84.13,1.233.939,1.612,1.635,2.785,5.075,8,8.283,13.051,11.084q8.115,4.493,16.52,8.428c5.017,2.349,10.776,5.8,16.283,6.7,10.35,1.7,20.7,4.177,31.216,5.22a476.729,476.729,0,0,0,111.021-2.029c19.939-2.7,39.825-6.184,59.253-11.5,16.236-4.444,31.374-10.65,43.5-22.762a75.337,75.337,0,0,0,9.436-11.414c.384-.578,1.088-1.229,1.649-.819a1.264,1.264,0,0,1,.363.921c.764,7.279-2.023,15.138-4.659,21.786-2.832,7.135-5.438,14.686-9.013,21.493-3.306,6.312-6.087,13.162-10.483,18.883-3.495,4.545-8.733,10.6-14.189,12.536-5.876,2.088-12.184,2.338-18.263,3.5-31.789,6.069-64.248,7.471-96.54,7.965Z" transform="translate(1.236 25.265)" fill="#fff"/>
    <path id="Tracé_9" data-name="Tracé 9" d="M158.064,175.325q-37.665.543-75.336-.533-9.425-.283-18.822-.685c-4.47-.189-9.063-.137-13.413-1.251-4.987-1.273-8.25-5-11.45-8.826a155.467,155.467,0,0,1-9.731-13.45,223.024,223.024,0,0,1-16.8-30.522q-1.9-4.117-3.7-8.283c-.548-1.269-1.146-2.538-1.621-3.821a3.481,3.481,0,0,1-.308-.983l.254-.312c.188-.432.362-.416.471.036a7.872,7.872,0,0,1,.941,1.589c2.719,4.11,6.888,6.952,11.082,9.374,5.076,2.926,10.31,5.605,15.589,8.146,5,2.407,9.928,5.224,15.178,7.037a56.942,56.942,0,0,0,8.338,1.812c2.98.539,5.948,1.12,8.921,1.681,5.886,1.117,11.788,2.176,17.763,2.8a462.521,462.521,0,0,0,74.187,1.653,514.912,514.912,0,0,0,72.842-9.425,276.718,276.718,0,0,0,33.8-8.609c9.6-3.244,18.923-7.551,27.033-13.7a74.423,74.423,0,0,0,11.621-10.934,77.713,77.713,0,0,0,4.9-6.362,5.5,5.5,0,0,0,.617-.907l-.322-.289c-.362-.453-.446-.385-.272.2a9.511,9.511,0,0,0,.076,1.882,28.913,28.913,0,0,1-.362,4.516c-.87,5.667-3.048,11-5.114,16.313-2.176,5.55-4.2,11.158-6.765,16.534-4.712,9.831-9.363,19.884-17.113,27.721a27.9,27.9,0,0,1-6,4.814A25.306,25.306,0,0,1,267.02,165c-5.8,1.171-11.691,1.864-17.505,2.9-24.288,4.277-48.986,5.908-73.625,6.666q-8.918.276-17.843.41a1.451,1.451,0,0,0,0,2.9c25.376-.392,50.791-1.3,75.978-4.637q9.341-1.225,18.611-2.922c5.938-1.087,12.072-1.548,17.908-3.11,5.224-1.4,9.269-4.382,12.942-8.295a62.72,62.72,0,0,0,9.447-13.049q4.172-7.692,7.83-15.647c2.512-5.47,4.557-11.133,6.753-16.733,2.124-5.438,4.217-10.9,4.971-16.719a30.61,30.61,0,0,0,.272-4.35,7.466,7.466,0,0,0-.489-3.538,2.176,2.176,0,0,0-2.538-.963c-1.225.406-1.882,1.67-2.57,2.66a73.108,73.108,0,0,1-24.65,22.1c-9.5,5.271-19.9,8.558-30.364,11.3A474.422,474.422,0,0,1,177,136.715a478.2,478.2,0,0,1-76.913.965c-6.427-.439-12.883-.9-19.267-1.814-6.2-.87-12.325-2.109-18.488-3.262-2.973-.555-6.025-.906-8.951-1.641a41.318,41.318,0,0,1-8.243-3.264c-5.379-2.624-10.8-5.18-16.11-7.935-4.919-2.537-10.2-5.053-14.449-8.663a24.5,24.5,0,0,1-4.846-5.9C8.588,103.4,6.3,102.719,4.9,104.7c-1.528,2.158.27,4.992,1.15,7.044q1.79,4.169,3.676,8.295c2.538,5.5,5.2,10.929,8.084,16.244A179.674,179.674,0,0,0,36.97,165.337c3.167,3.821,6.6,7.817,11.444,9.426,4.349,1.424,9.015,1.472,13.529,1.638,25.76.939,51.516,1.45,77.294,1.287q9.425-.058,18.832-.209a1.078,1.078,0,0,0,0-2.154Z" transform="translate(0.954 24.959)" fill="#071227"/>
    <path id="Tracé_10" data-name="Tracé 10" d="M29.2,154.259a31.785,31.785,0,0,0,23.659-5.176c10.2,9.788,28.154,9.892,38.471.215a22.243,22.243,0,0,0,37.422,1.7c6.011,4.187,13.051,7.189,20.391,7.3s14.907-2.984,19.126-8.973c6.906,6.051,16.908,6.588,26.1,6.819,4.517.113,9.11.218,13.464-.989s8.5-3.948,10.31-8.092a40.71,40.71,0,0,0,26.158,7.36c7.163-.5,15.178-3.988,16.86-10.966-.468,1.939,8.385,4.47,9.639,4.68a21.251,21.251,0,0,0,12.231-1.643c2.678-1.243,6.434-6.4,8.957-6.383,4.1.018,7.13,7.758,7.925,10.8,2.823,10.827-.388,22.623-6.739,31.839S277.622,198.863,267.9,204.4c-35.8,20.381-78.592,23.542-119.765,24.9-21.5.726-43.1,1.054-64.473-1.45-15.1-1.765-31.027-5.477-41.532-16.469C29.137,197.8,27.937,177.131,27.48,158.341" transform="translate(7.546 39.832)" fill="#9bf8bd"/>
    <path id="Tracé_11" data-name="Tracé 11" d="M24.651,131.55a297.959,297.959,0,0,0,49.381,10.075,481.46,481.46,0,0,0,56.109,3.625,557.093,557.093,0,0,0,56.682-2.341,439.928,439.928,0,0,0,51.838-7.736c14.069-3.031,28.091-6.855,41.327-12.543q2.048-.88,4.066-1.812c.794-.362.1-1.548-.688-1.178-12.608,5.938-26.14,9.874-39.68,13.049a415.005,415.005,0,0,1-50.75,8.3,553.2,553.2,0,0,1-56.033,2.994,506.03,506.03,0,0,1-55.939-2.769,325.148,325.148,0,0,1-50.515-9.14q-2.763-.75-5.506-1.572a.564.564,0,0,0-.3,1.087l.01-.04Z" transform="translate(6.626 33.991)" fill="#4ade80"/>
    <path id="Tracé_12" data-name="Tracé 12" d="M28.771,155.736a34.282,34.282,0,0,0,24.7-4.941l-1.811-.236c10.458,10.956,29.9,10.284,40.69.32l-2.576-.334a23.891,23.891,0,0,0,40.271,1.7l-2.27.595c6.685,4.615,14.744,7.947,23,7.5a24.588,24.588,0,0,0,18.8-9.759l-2.624.337c5.677,4.879,13.007,6.45,20.3,7,3.847.294,7.733.414,11.6.363a31.165,31.165,0,0,0,12.072-2.1,16.248,16.248,0,0,0,8.552-7.871l-2.313.6a42.719,42.719,0,0,0,20.859,7.544c6.4.555,13.457-.276,18.825-4.078a14.342,14.342,0,0,0,5.829-8.078l-2.849.751c9.153,8.663,25.4,6.775,32.328-3.741,1.295-1.961-1.868-3.8-3.147-1.838-5.608,8.591-19.317,10.212-26.771,3.169a1.721,1.721,0,0,0-2.85.754c-1.787,6.938-9.94,9.516-16.313,9.787a39.367,39.367,0,0,1-24.2-7.181,1.7,1.7,0,0,0-2.312.609c-4.068,8.867-15.378,8.462-23.571,8.225-8.116-.235-17.222-.724-23.686-6.29a1.708,1.708,0,0,0-2.625.342c-3.777,5.263-10.338,7.993-16.693,8.164-7.446.177-14.5-2.9-20.536-7.062a1.689,1.689,0,0,0-2.268.595,20.606,20.606,0,0,1-34.566-1.7,1.667,1.667,0,0,0-2.582-.334A26.453,26.453,0,0,1,71.9,155.278a27.915,27.915,0,0,1-18.125-6.837,1.527,1.527,0,0,0-1.811-.236,30.081,30.081,0,0,1-22.61,5.412c-1.37-.217-1.983,1.85-.583,2.118h0Z" transform="translate(7.688 39.416)" fill="#071227"/>
    <path id="Tracé_13" data-name="Tracé 13" d="M139.179,45.015a18.752,18.752,0,0,1-7.561-11.238c-1.11-4.886-.153-10.091-2.081-14.84a9.011,9.011,0,0,1-.762-2.222,2.111,2.111,0,0,1,.816-2.074c1.058-.645,2.393.2,3.626.182,2.015-.033,3.193-2.212,4.828-3.393a10.806,10.806,0,0,1,3.6-1.451,37.478,37.478,0,0,1,5.938-1.242,24.356,24.356,0,0,1,6.706.362c5.651,1.022,13.294,6.859,9.668,13.377-.47.848-1.174,1.45-1.573,2.32a7.5,7.5,0,0,0-.529,3.767c.127,1.428.493,2.823.664,4.245a15.544,15.544,0,0,1-2.574,10.511" transform="translate(36.348 2.446)" fill="#fff"/>
    <path id="Tracé_14" data-name="Tracé 14" d="M140.015,44.47a18.632,18.632,0,0,1-5.7-7.507c-1.349-3.143-1.5-6.525-1.679-9.874a40.419,40.419,0,0,0-.479-4.772,17.932,17.932,0,0,0-.633-2.574,13.573,13.573,0,0,1-.972-2.69c-.094-.909.319-.837,1.088-.685a9.482,9.482,0,0,0,1.906.3,5.618,5.618,0,0,0,3.741-1.812,10.3,10.3,0,0,1,3.216-2.5A32.781,32.781,0,0,1,145.557,11a20.55,20.55,0,0,1,10.059.257c4.014,1.207,9.689,5.3,7.668,10.151a14.442,14.442,0,0,1-1.487,2.252,7.062,7.062,0,0,0-1.037,2.7,15.33,15.33,0,0,0,.338,5.495A15.228,15.228,0,0,1,159.01,42.9c-1.015,1.631,1.45,3.009,2.538,1.486a16.5,16.5,0,0,0,2.9-10.843c-.179-1.91-.791-3.792-.748-5.721.044-2.119,1.508-3.215,2.305-5.027,2.687-6.083-2.472-11.575-7.768-13.83A21.447,21.447,0,0,0,147.7,7.574,41.305,41.305,0,0,0,141.4,8.9a11.179,11.179,0,0,0-4.587,2.192c-.913.791-1.936,2.476-3.262,2.538a23.808,23.808,0,0,1-2.429-.4,3.261,3.261,0,0,0-2.519.87c-1.243,1.237-1.106,3.115-.5,4.607a20.465,20.465,0,0,1,1.548,5.927c.421,4.35.2,8.721,1.918,12.85a19.024,19.024,0,0,0,7.417,8.744c1.142.726,2.085-1.008,1.044-1.784l-.018.03Z" transform="translate(36.035 2.1)" fill="#071227"/>
    <path id="Tracé_15" data-name="Tracé 15" d="M101.309,93.925c7.185,5.632,14.7,11.237,23.465,13.8,5.677,1.65,11.658,1.943,17.567,1.864a143.128,143.128,0,0,0,18.6-1.48,30,30,0,0,0,9.98-2.8c4.774-2.574,8.048-7.4,9.715-12.558s1.889-10.676,1.77-16.1a134.352,134.352,0,0,0-5.2-34.252c-2.925-10.129-11.06-11.061-20.713-10.061-3.774.392-17.28,1.537-17.4,7.2-.086,3.774,1.882,8.015,2.669,11.716l3.143,14.71q-7.633-5.6-14.863-11.726c-3.948-3.306-7.812-6.761-12.434-8.961s-10.215-2.944-14.812-.7" transform="translate(28.542 9.095)" fill="#4ade80"/>
    <path id="Tracé_16" data-name="Tracé 16" d="M100.757,95.11c6.264,4.955,12.687,9.845,20.137,12.894,8.026,3.292,16.781,3.563,25.336,3.241q6.818-.256,13.586-1.164c4.016-.537,8.1-1.13,11.756-2.98,6.493-3.288,10.284-10.211,11.694-17.113,1.715-8.4,1.012-17.423,0-25.877q-.758-6.494-2.128-12.894c-.848-3.943-1.649-8.13-3.33-11.822C173,28.837,159.8,30.413,150.337,32a32.267,32.267,0,0,0-7.157,1.918c-1.9.8-3.889,1.943-4.814,3.876-1.4,2.936.109,6.916.99,9.787,1.254,4.093,2.059,8.277,2.95,12.459l1.417,6.642L145.9,65q-5.565-4.1-10.922-8.467c-3.356-2.745-6.58-5.667-10.041-8.281-6.383-4.81-14.827-8.313-22.566-4.538-1.617.79-.2,3.11,1.4,2.392,7.424-3.324,15.352,1.2,21.026,5.8,6.525,5.263,12.832,10.7,19.575,15.668,1.134.834,2.437-.537,2.174-1.683q-1.316-6.163-2.636-12.325c-.782-3.676-2.109-7.211-2.849-10.875-.438-2.176-.6-3.756,1.323-5.048a17.712,17.712,0,0,1,5.953-2.228,64.709,64.709,0,0,1,12.636-1.544c4.692-.131,9.89.557,12.856,4.633,1.939,2.66,2.606,6.037,3.392,9.164q1.487,5.923,2.426,11.963A111.21,111.21,0,0,1,181.059,83.8c-.452,6.888-2.493,14.087-7.917,18.742-2.769,2.375-6.246,3.447-9.787,4.1a115.623,115.623,0,0,1-12.184,1.482c-8.066.613-16.552.95-24.466-1-7.315-1.812-13.775-5.836-19.782-10.255q-2.292-1.7-4.542-3.451c-1.207-.935-2.928.724-1.7,1.707l.081-.014Z" transform="translate(28.243 8.762)" fill="#4ade80"/>
    <path id="Tracé_17" data-name="Tracé 17" d="M114.767,218.482c3.625-5.685,3.748-6.479,6.459-12.641,1.245-2.835,2.327-6.336.491-8.824a13.719,13.719,0,0,1-1.959-2.451,5.021,5.021,0,0,1-.024-3.056c1.363-6.282,4.6-11.963,7.714-17.6A713.285,713.285,0,0,0,172.4,74.86a6.3,6.3,0,0,0,.519-4.154c-2.135-6.163-6.692,6.326-7.326,7.718q-3.58,7.873-7.2,15.729c-4.732,10.262-9.534,20.493-14.5,30.643-10.016,20.489-20.692,40.677-32.688,60.081a17.1,17.1,0,0,1-4.14,5.076c-2.736,1.982-6.365,2.174-9.425,3.625-9.9,4.738-10.057,18.02-16.951,25.412" transform="translate(22.679 19.612)" fill="#fff"/>
    <path id="Tracé_18" data-name="Tracé 18" d="M115.99,219.328a90.161,90.161,0,0,0,6.337-11.963c1.066-2.349,2.174-4.915,1.918-7.559a6.391,6.391,0,0,0-1.3-3.386c-.9-1.16-1.951-1.812-1.772-3.429a29.517,29.517,0,0,1,2.9-8.744c1.281-2.8,2.77-5.492,4.271-8.178q4.715-8.469,9.2-17.059a718.876,718.876,0,0,0,32-71.081q1.811-4.643,3.545-9.309c.983-2.616,2.6-5.6,1.494-8.413-.537-1.374-1.657-2.659-3.282-2.325a5.187,5.187,0,0,0-2.9,2.375,38.135,38.135,0,0,0-3.72,7.613c-.185.442.087-.2-.048.109-.33.724-.667,1.45-1,2.174q-1.09,2.407-2.2,4.8-2.1,4.587-4.221,9.168c-11.237,24.288-22.888,48.4-36.088,71.686q-4.848,8.564-9.994,16.954c-1.5,2.443-2.918,5.249-5.518,6.688-2.389,1.323-5.216,1.643-7.721,2.709-8.647,3.69-10.673,13.278-14.562,20.859a23.086,23.086,0,0,1-3.418,5.14c-1.406,1.534.881,3.831,2.29,2.291,2.882-3.143,4.619-6.978,6.265-10.876,1.609-3.8,3.16-7.884,5.972-10.98A13.689,13.689,0,0,1,99.521,195c2.5-.981,5.192-1.373,7.584-2.638,2.537-1.338,4.183-3.626,5.658-6.011q2.582-4.158,5.076-8.37c13.17-22.217,24.748-45.313,35.722-68.695q4.216-8.974,8.337-17.992c2.059-4.5,4.213-8.975,6.1-13.55.523-1.265,1.088-2.538,1.734-3.792a9.587,9.587,0,0,1,2.065-3.063c.1-.077.276-.069.1-.077.3,0-.628.045-.342-.05-.082.03-.094-.149.105.229a2.807,2.807,0,0,1,.28,1.689,18.878,18.878,0,0,1-1.338,4.032q-.844,2.283-1.7,4.556a729.954,729.954,0,0,1-30.51,69.907q-4.258,8.49-8.758,16.856c-2.9,5.412-6.115,10.708-8.494,16.381a32.067,32.067,0,0,0-2.469,8.167,5.022,5.022,0,0,0,.7,3.531c.726,1.088,1.893,1.812,2.288,3.135.726,2.448-.627,5.184-1.548,7.385-.83,1.983-1.605,3.987-2.56,5.92s-2.123,3.849-3.28,5.717c-.692,1.112,1.04,2.109,1.744,1.021l-.012.037Z" transform="translate(22.333 19.276)" fill="#071227"/>
    <path id="Tracé_19" data-name="Tracé 19" d="M109.989,39.505c-2.723-1.451-6.645-.179-9.574.8a22,22,0,0,0-7.765,4.931c-6.29,5.8-25.147,26.343-25.567,34.97-.414,8.454,7.947,10.6,4.814,18.869-1.74,4.589,5.524,3.262,3.817,7.863a32.1,32.1,0,0,0-2.2,10.151,7.3,7.3,0,0,0,.1,2.765c.8,1.516,3.4-1.146,4.684-1.812a63.125,63.125,0,0,1,6.525-2.821,133.3,133.3,0,0,1,12.619-4.382,71.78,71.78,0,0,1,33.949-1.019c3.537.742,4.872-1.451,5.365-5.076a20.677,20.677,0,0,0-.646-7.394c-2.9-12.6-9.425-24.126-12.5-36.682" transform="translate(18.804 11.035)" fill="#4ade80"/>
    <path id="Tracé_20" data-name="Tracé 20" d="M110.889,38.765c-3.661-1.811-8.374-.334-11.909,1.169a28.19,28.19,0,0,0-8.435,6.078,170.116,170.116,0,0,0-12.06,13.13c-3.988,4.79-8.044,9.882-10.749,15.537a14.719,14.719,0,0,0-1.765,6.8c.105,3.262,1.57,5.985,3.262,8.671,1.567,2.469,2.749,4.84,1.9,7.812-.4,1.406-.983,2.69-.34,4.133a5.393,5.393,0,0,0,2.334,2.286c.67.411,1.6.827,1.69,1.4a3.609,3.609,0,0,1-.363,1.451c-.456,1.282-.873,2.576-1.2,3.9a37.607,37.607,0,0,0-.938,6.848c-.1,1.512-.048,3.523,1.772,3.987,1.532.381,2.993-.837,4.138-1.671a25.447,25.447,0,0,1,5.619-2.765A140.513,140.513,0,0,1,98.111,112.5a70.326,70.326,0,0,1,30.846-1.45c1.812.322,3.759.989,5.6.417a5.231,5.231,0,0,0,3.149-3.133c1.758-4.219.686-9.041-.432-13.278-2.5-9.5-6.843-18.384-9.962-27.681q-1.148-3.374-2.015-6.833c-.453-1.814-3.262-1.048-2.813.776C124.694,70.3,128.6,78.7,131.74,87.36a68.541,68.541,0,0,1,3.771,13.413c.3,2.055.724,7.993-2.614,8a15.156,15.156,0,0,1-2.693-.457q-1.823-.334-3.662-.577a72.7,72.7,0,0,0-7.529-.629,74.473,74.473,0,0,0-14.137.949,79.751,79.751,0,0,0-13.9,3.679,94.663,94.663,0,0,0-12.921,5.221,14.33,14.33,0,0,0-1.649,1.087,15.226,15.226,0,0,0-1.739,1.088c-.157.181.036.32.575.41-.042.032,0-.7-.042-.446a9.6,9.6,0,0,0,.042-1.088c.066-1.054.1-2.106.25-3.153a35.538,35.538,0,0,1,1.784-6.82,4.506,4.506,0,0,0,.036-3.828,5.785,5.785,0,0,0-2.236-2.041c-.595-.362-1.505-.83-1.635-1.229a1.892,1.892,0,0,1,.163-1.192,13.818,13.818,0,0,0,.638-2.516,9.475,9.475,0,0,0-.316-4.165c-.809-2.584-2.594-4.662-3.839-7.028a9.889,9.889,0,0,1-.983-7.153,25.657,25.657,0,0,1,2.954-6.256,84.227,84.227,0,0,1,5.1-7.414A170.97,170.97,0,0,1,89.07,51.273q2.219-2.38,4.575-4.626A23.2,23.2,0,0,1,103.773,40.9c1.884-.523,4.092-1,5.942-.105,1.333.645,2.511-1.337,1.17-2l0-.026Z" transform="translate(18.491 10.773)" fill="#071227"/>
    <path id="Tracé_21" data-name="Tracé 21" d="M115.754,77.824c5.739-2.592,12.013-3.763,18.253-4.625,2.472-.34,4.948-.638,7.438-.809a4.76,4.76,0,0,1,3.1.511,16.768,16.768,0,0,1,1.309,1.291c1.5,1.356,3.18.848,4.956,1.175a17.009,17.009,0,0,1,4.878,1.975,18.436,18.436,0,0,1,8.48,10.447,6.43,6.43,0,0,1,.185,4.155,2.875,2.875,0,0,1-3.336,1.9,2.718,2.718,0,1,1-3.867,3.81,3.944,3.944,0,0,1-.649,5,3.815,3.815,0,0,1-5.007-.149,3.245,3.245,0,0,1-2.433,3.473,7.8,7.8,0,0,1-4.575-.392c-2.624-.844-4.3-2.273-6.525-3.581-2.045-1.2-2.454.4-4.256,1.679-3.853,2.751-8.826,3.425-13.412,4" transform="translate(32.65 20.562)" fill="#fff"/>
    <path id="Tracé_22" data-name="Tracé 22" d="M116.49,78.952a54.028,54.028,0,0,1,12.245-3.524A110.223,110.223,0,0,1,141.673,73.8a3.691,3.691,0,0,1,2.56.417,18.341,18.341,0,0,0,1.91,1.721c1.537.889,3.3.545,4.956.914a17.062,17.062,0,0,1,9.029,5.918A16.489,16.489,0,0,1,163,88.039a6.53,6.53,0,0,1,.428,3.161c-.159.841-.837,1.814-1.814,1.549a1.405,1.405,0,0,0-1.355,2.33,1.306,1.306,0,1,1-1.87,1.812,1.436,1.436,0,0,0-2.245,1.734c1.334,2.232-1.275,5-3.386,3.1a1.47,1.47,0,0,0-2.439,1.417c.189,1.345-1.733,1.85-2.687,1.812a10.81,10.81,0,0,1-4.422-1.345c-1.247-.655-2.4-1.471-3.6-2.214a4.336,4.336,0,0,0-3.6-.9c-1.168.362-1.907,1.45-2.839,2.174a14.38,14.38,0,0,1-3.948,2.023,43.065,43.065,0,0,1-8.7,1.788c-1.842.243-1.884,3.171,0,2.94a41.974,41.974,0,0,0,10.071-2.078,17.5,17.5,0,0,0,4.4-2.363,16.933,16.933,0,0,1,1.643-1.45c.583-.326.906.077,1.492.439,2.846,1.761,5.637,3.661,9.085,3.93,3.284.257,6.421-1.995,5.92-5.5l-2.435,1.421a5.186,5.186,0,0,0,7.917-6.606l-2.244,1.73a4.127,4.127,0,1,0,5.862-5.8l-1.36,2.33a4.249,4.249,0,0,0,4.764-2.244c1.088-2.063.478-4.521-.334-6.557a20.093,20.093,0,0,0-7.808-9.524,17.956,17.956,0,0,0-6.141-2.643c-.961-.177-1.933-.112-2.9-.235-1.342-.173-1.875-1.146-2.857-1.9-1.693-1.309-4.057-.859-6.025-.663q-3.835.384-7.642,1a63.843,63.843,0,0,0-16.461,4.539c-1.189.536-.157,2.266,1.019,1.747Z" transform="translate(32.422 20.309)" fill="#071227"/>
    <path id="Tracé_23" data-name="Tracé 23" d="M136.624,76.333c2.806-.569,5.735-.131,8.566-.4,1.016-.094,1.45-1.74.262-1.939a21.464,21.464,0,0,0-4.712-.064,26.273,26.273,0,0,0-4.659.5c-1.243.29-.726,2.158.525,1.9Z" transform="translate(38.229 20.985)" fill="#071227"/>
    <path id="Tracé_24" data-name="Tracé 24" d="M112.651,39.93a29.162,29.162,0,0,0-17.038,2.593A51.99,51.99,0,0,0,81.447,52.673c-11.714,11.307-22.9,28.37-24.19,45.031A41.447,41.447,0,0,0,58.289,109.5c1.063,4.96,2.7,9.908,5.776,13.942,4.462,5.852,11.625,9.23,18.908,10.285s14.719,0,21.873-1.73a122,122,0,0,0,30.52-11.85,2.684,2.684,0,0,0,1.792-3.023,207,207,0,0,0-2.878-32.505c-1.182,1.087-48.1,11.3-49.664,11.56" transform="translate(15.989 11.239)" fill="#4ade80"/>
    <path id="Tracé_25" data-name="Tracé 25" d="M113.332,39.008c-15.438-3.085-29.066,8.214-38.468,19.1C65.4,69.058,57.546,82.589,56.11,97.212A42.257,42.257,0,0,0,57,109.752a43.85,43.85,0,0,0,3.461,10.686,27.407,27.407,0,0,0,15.207,13.308c7.34,2.806,15.374,2.745,23.033,1.537a110.422,110.422,0,0,0,23.2-6.525q5.647-2.219,11.06-4.974a24.787,24.787,0,0,0,4.756-2.693c1.512-1.268,1.45-3.059,1.417-4.872a206.73,206.73,0,0,0-2.946-31.745c-.221-1.327-1.885-1.413-2.727-.724.149-.123.392-.362.135-.149.334-.257.29-.108-.03,0-.362.119-.75.236-1.126.344-1.247.362-2.5.674-3.759.989q-5.817,1.449-11.662,2.778-12.966,2.994-25.97,5.818C88.87,94,86.7,94.6,84.52,94.98c-1.968.337-1.134,3.339.83,3a1.772,1.772,0,0,0,.189-.033c-.617.1.08,0,.362-.064.385-.069.769-.149,1.153-.222,1.283-.25,2.556-.529,3.831-.8q5.915-1.272,11.807-2.576c8.743-1.939,17.491-3.875,26.184-6.029,1.45-.362,2.926-.724,4.372-1.138a6.69,6.69,0,0,0,2.515-1.044l-2.725-.724a205.108,205.108,0,0,1,2.538,23.924q.141,2.878.2,5.761c.018.913.094,1.856.036,2.767s-.641,1.036-1.363,1.432q-4.734,2.6-9.686,4.763a119.011,119.011,0,0,1-21.413,7.033c-7.25,1.641-14.918,2.576-22.248.939-6.119-1.37-12.118-4.513-15.8-9.723a30.366,30.366,0,0,1-4.219-9.158,48.692,48.692,0,0,1-1.995-11.273c-.3-6.779,1.548-13.62,4.159-19.826a81.476,81.476,0,0,1,10.73-18.064C83.215,51.96,96.638,39.37,112.977,41.531c1.417.185,1.74-2.226.337-2.5l.018-.018Z" transform="translate(15.644 10.933)" fill="#4ade80"/>
    <path id="Tracé_26" data-name="Tracé 26" d="M93.73,54.394a16.544,16.544,0,0,0,7.837,9.89c2.029,1.112,4.43,1.964,6.751,1.341,2.236-.6,3.961-2.345,5.495-3.988,1.048-1.117-.595-2.769-1.681-1.683a10.956,10.956,0,0,1-4.314,3.143c-1.943.581-3.988-.362-5.63-1.337a15.589,15.589,0,0,1-6.608-7.885c-.417-1.142-2.2-.7-1.85.507ZM86.26,89.64a69.418,69.418,0,0,0-3.35,12.54,1.225,1.225,0,0,0,1.482,1.482c10.974-2.3,21.961-4.669,32.807-7.521a70.226,70.226,0,0,0,7.207-2.146,6.509,6.509,0,0,0,1.874-.889.233.233,0,0,1-.159.055c.08,0-.189-.073-.207-.069.134-.051.247.2.116.054.062.069.424.471.225.214,1.338,1.729,1.812,4.249,2.291,6.423a89.536,89.536,0,0,1,1.605,9.9,112.291,112.291,0,0,1,.75,11.547c0,1.449,0,2.9-.126,4.349a8.87,8.87,0,0,1-.179,1.364c-.04.206-.094.412-.145.615-.021.091-.054.175-.08.262-.116.362.083-.161,0,.032-.772,1.6,1.617,3.005,2.393,1.4.953-1.975.889-4.483.911-6.622a96.238,96.238,0,0,0-.527-10.216c-.362-3.676-.84-7.352-1.548-10.976a33.809,33.809,0,0,0-2.381-8.171c-.772-1.616-2.284-3.408-4.249-2.4a10.852,10.852,0,0,1-1.584.758q-1.669.6-3.375,1.088c-6.888,2.023-13.9,3.625-20.892,5.224q-7.674,1.753-15.367,3.4l1.48,1.478a69.434,69.434,0,0,1,3.306-12.546c.527-1.45-1.754-2.049-2.28-.631ZM108.912,8.547a13.729,13.729,0,0,1,7.018-.3c1.526.384,3.708.938,4.712,2.235a4.077,4.077,0,0,1,.483,4.039,3.261,3.261,0,0,1,3.718,2.582,5.216,5.216,0,0,1-1.554,4.673,3.1,3.1,0,0,1,3.215.41,2.235,2.235,0,0,1,.173,3.121c1.613-.726,3.59.685,3.938,2.469a5.164,5.164,0,0,1-1.979,4.76c-2.411,1.975-4.923,1.45-7.674.905-2.307-.45-4.855.131-7.214-.054a30.345,30.345,0,0,1-16.338-5.945" transform="translate(23.3 2.239)" fill="#9af8bc"/>
    <path id="Tracé_27" data-name="Tracé 27" d="M106.308,9.734c2.795-.724,12.6-.428,10.541,4.673-.46,1.143.837,1.995,1.814,1.812s1.757.871,1.859,1.73a3.772,3.772,0,0,1-1.232,2.958c-1.088,1.088,0,3.262,1.577,2.711a1.757,1.757,0,0,1,1.512-.064c.245.154.529.593.285.87-1,1.126-.058,3.334,1.6,2.743a1.534,1.534,0,0,1,1.918,1.6,3.946,3.946,0,0,1-2.272,3.31,6.582,6.582,0,0,1-4.191.257,23.029,23.029,0,0,0-5.438-.4,29.473,29.473,0,0,1-9.976-1.153,33.594,33.594,0,0,1-8.954-4.44c-1.5-.983-3.3,1.3-1.936,2.5a27.325,27.325,0,0,0,11.778,5.633,30.818,30.818,0,0,0,6.616.888,42.244,42.244,0,0,1,7.04.175,10.562,10.562,0,0,0,6.006-.261,7.686,7.686,0,0,0,4.253-4.35,5.438,5.438,0,0,0-.837-5.5,4.483,4.483,0,0,0-4.865-1.45l1.6,2.745a3.887,3.887,0,0,0,.163-5.043,4.557,4.557,0,0,0-5.144-1.211l1.581,2.711c1.623-1.79,2.624-4.35,1.729-6.717a4.764,4.764,0,0,0-5.438-3.107l1.814,1.814c1.188-3.187-.7-6.109-3.7-7.218a16.187,16.187,0,0,0-4.662-.979,15.785,15.785,0,0,0-5.524.911.94.94,0,0,0,.5,1.811l-.014.033Z" transform="translate(26.158 1.966)" fill="#071227"/>
    <path id="Tracé_28" data-name="Tracé 28" d="M93.406,25.98A14.483,14.483,0,0,0,94.62,34.92c.552,1.117,1.621,2.276,1.871,3.494a11.512,11.512,0,0,1-.073,3.437,24.991,24.991,0,0,1-.471,2.484c-.209.891-.768,1.993-.315,2.867a12.5,12.5,0,0,0,2.618,2.727,32.327,32.327,0,0,0,3.084,2.512,9.935,9.935,0,0,0,2.651,1.45,4.275,4.275,0,0,0,2.976-.03c1.631-.7,2.413-2.62,2.487-4.393a51.7,51.7,0,0,0-.511-5.3,5.126,5.126,0,0,1,.3-2.367c.688-1.57,2.806-1.875,4.122-2.749a9.666,9.666,0,0,0,3.4-3.911,13.132,13.132,0,0,0-.541-11.238,18.907,18.907,0,0,0-2.646-3.925,12.8,12.8,0,0,0-11.557-4.292c-4.012.634-7.2,5.21-8.277,8.875q-.194.7-.334,1.421Z" transform="translate(26.227 4.407)" fill="#fff"/>
    <path id="Tracé_29" data-name="Tracé 29" d="M92.574,26.036a15.189,15.189,0,0,0,1.936,11.335,4.617,4.617,0,0,1,.909,2.331,14.423,14.423,0,0,1-.265,2.954c-.312,1.74-1.4,3.759-.617,5.5.726,1.617,2.426,2.846,3.723,3.988a18.38,18.38,0,0,0,5.188,3.519,5.648,5.648,0,0,0,7.772-4.547c.362-2.073-.134-4.066-.316-6.121a3.519,3.519,0,0,1,.284-2.375,4.737,4.737,0,0,1,1.848-1.037,11.2,11.2,0,0,0,6.359-7.889c1.638-7.557-3.264-16.023-10.513-18.6-3.684-1.317-7.939-1.13-11.086,1.323a16.163,16.163,0,0,0-5.645,9.512c-.384,2,2.661,2.86,3.07.845a13.775,13.775,0,0,1,3.822-7.135,7.773,7.773,0,0,1,7.525-1.812c6.119,1.41,10.8,8.378,9.725,14.613a8.282,8.282,0,0,1-5.075,6.377,6.2,6.2,0,0,0-2.817,2.037c-1.011,1.482-.9,3.332-.678,5.027.254,1.995,1.327,7.5-2.338,7.026-1.516-.2-2.9-1.381-4.06-2.284q-1-.8-1.951-1.659c-.642-.573-1.605-1.132-1.965-1.86-.315-.628.1-1.346.262-2a24.592,24.592,0,0,0,.511-2.881,8.489,8.489,0,0,0-.578-5.245A21.952,21.952,0,0,1,95.241,32.2a14.832,14.832,0,0,1-.362-5.84c.17-1.323-2.042-1.613-2.306-.324Z" transform="translate(25.929 4.047)" fill="#071227"/>
    <path id="Tracé_30" data-name="Tracé 30" d="M103.148,36.586a1.294,1.294,0,0,1-.434-.469c-.461-.808-.272-1.888-.845-2.674a7.283,7.283,0,0,0-2.415-2.472,2.331,2.331,0,0,0-3.113,1,2.908,2.908,0,0,0-.022,1.653,20.416,20.416,0,0,0,1.451,4.068c.39.845,1.2,1.776.528,2.723a1.939,1.939,0,0,1-2.029.663,2.809,2.809,0,0,1-1.693-1.413,3.316,3.316,0,0,1-2.8.154,1.758,1.758,0,0,1-.812-2.42,1.251,1.251,0,0,1-1.421.388,2.973,2.973,0,0,1-1.243-.94,4.115,4.115,0,0,1-.925-1.526c-.18-.629-.1-2.051.873-1.751q-1.793-.669-3.541-1.45A3.352,3.352,0,0,1,82.733,28.9a4.468,4.468,0,0,1,2.559-3.581,3.68,3.68,0,0,1,3.952-6.134,10.327,10.327,0,0,1-1.153-4.074,4.849,4.849,0,0,1,1.53-3.831,3.179,3.179,0,0,1,3.934-.2,3.234,3.234,0,0,1,6.1-2.049c-.392-.862,4.078-1.721,4.553-1.7,1.86.077,3.211,1.192,4.84,1.925,2.9,1.3,5.353,3.933,4.436,7.362-.434,1.631.545,2.085.668,3.672A2.9,2.9,0,0,1,112,23.016a8.487,8.487,0,0,1-3.712.069,2.729,2.729,0,0,1-4.155,3,28.954,28.954,0,0,1,1.052,8.512,3.008,3.008,0,0,1-.3,1.45,1.218,1.218,0,0,1-1.74.539Z" transform="translate(23.258 2.013)" fill="#9af8bc"/>
    <path id="Tracé_31" data-name="Tracé 31" d="M104.213,36.149c-.694-.609-.5-2.009-.947-2.821a10.392,10.392,0,0,0-1.661-2.208,4.017,4.017,0,0,0-4.981-.786c-1.986,1.254-1.537,3.744-.9,5.64A23.47,23.47,0,0,0,97,39.064c.177.362.7.9.09.943-.416.03-.745-.475-.925-.769a1.467,1.467,0,0,0-1.641-.667c-.18.073-2.356.631-1.946-.116a1.483,1.483,0,0,0-2.321-1.79c-.072.076-.913-.994-.979-1.128a1.3,1.3,0,0,0-.152-.312V34.95c0-.363-.308-.25-.929.362a1.48,1.48,0,0,0,.787-2.853c-1.284-.475-3.731-.943-4.314-2.343s.591-2.616,1.7-3.219a1.45,1.45,0,0,0,.3-2.276c-2.055-1.927.06-4.734,2.537-3.712,1.3.532,2.095-1.128,1.635-2.126-.7-1.5-1.309-3.262-.7-4.894.478-1.287,1.811-2.087,3.026-1.22,1.15.81,2.331-.527,2.139-1.647-.362-2.2,2.52-2.7,3.447-.929.777,1.48,3.053.446,2.651-1.116.275,1.088-.805,1.246.13.859a9.408,9.408,0,0,1,1.175-.362q.63-.164,1.269-.283c.152-.03.308-.066.462-.081.248-.018-.2,0,.051,0a8,8,0,0,1,3.314,1.31,14.32,14.32,0,0,1,3.111,1.841,4.688,4.688,0,0,1,1.6,2.65c.2,1.221-.428,2.363-.173,3.6.185.9,1.126,2.037.434,2.9-.923,1.15-2.9.772-4.14.631-.935-.105-1.5.957-1.319,1.734a1.4,1.4,0,0,1-2.176,1.5,1.334,1.334,0,0,0-1.936,1.49,27.032,27.032,0,0,1,1.019,7.022c0,.094-.08,2.008-.1,2-1.482-.726-2.787,1.49-1.3,2.222a2.524,2.524,0,0,0,2.86-.239,3.933,3.933,0,0,0,1.126-3.079,30.69,30.69,0,0,0-1.069-8.631l-1.936,1.49a4.127,4.127,0,0,0,6.137-4.5l-1.683,1.685c2.059.29,4.239.519,6-.83a4.1,4.1,0,0,0,1.428-4.691,3.872,3.872,0,0,1-.447-1.878,9.292,9.292,0,0,0,.157-2.872,7.455,7.455,0,0,0-2.411-4.273,20.633,20.633,0,0,0-4.531-2.745,7.552,7.552,0,0,0-4.575-1.174c-1.7.25-5.938.913-5.281,3.473l2.646-1.117a4.687,4.687,0,0,0-8.758,3.169l2.142-1.649a4.805,4.805,0,0,0-6.73,1.649c-1.662,2.654-.777,5.822.437,8.442l1.631-2.123a5.118,5.118,0,0,0-5.356,8.554l.294-2.28c-2.212,1.185-3.8,3.666-3.143,6.224.762,2.936,3.93,3.756,6.435,4.714l.786-2.854c-2.447-.42-3.332,2.136-2.5,4.09.912,2.145,3.82,4.393,5.872,2.214l-2.338-1.808a3.219,3.219,0,0,0,.575,3.865,4.282,4.282,0,0,0,4.694.543l-1.623-.67c1.029,1.67,3.031,2.769,4.951,1.842a2.958,2.958,0,0,0,1.715-2.335,6.007,6.007,0,0,0-1.044-3.143,14.348,14.348,0,0,1-1.293-3.506c-.087-.5-.175-.886.311-1.144a1.356,1.356,0,0,1,1.295.2,4.993,4.993,0,0,1,1.906,2.415c.29.979.363,1.928,1.215,2.61,1.052.819,2.523-.559,1.5-1.486Zm14.347-6.684H118.5l.211-.03h-.066l.211.028H118.8l.189.08a.306.306,0,0,1-.077-.042l.157.123-.04-.044.123.155a.194.194,0,0,1-.026-.051l.076.185v-.028l.03.211a.167.167,0,0,1,0-.062l-.03.206a.437.437,0,0,1,0-.058l-.08.185a.206.206,0,0,1,.03-.051l-.121.157a.162.162,0,0,1,.04-.044l-.155.119a.133.133,0,0,1,.048-.032l-.181.08a.153.153,0,0,1,.054,0h-.155l-.2-.03h.054l-.181-.076a.242.242,0,0,1,.05.033l-.155-.119a.45.45,0,0,1,.044.042l-.119-.152a.126.126,0,0,1,.024.051l-.076-.179v.026l-.026-.2a.148.148,0,0,1,0,.058l.03-.2v.028a.748.748,0,1,0,1.442.4.954.954,0,0,0-1.671-.848.989.989,0,0,0-.068,1.137,1.066,1.066,0,0,0,1.16.45.8.8,0,0,0-.425-1.534v.022Zm-13.22,13.2a12.113,12.113,0,0,0,6.315,1.708c2.011-.041,4.712-.552,5.934-2.317a1.317,1.317,0,0,0-1.474-1.914c-.783.243-1.426.76-2.176,1.061a8.12,8.12,0,0,1-2.451.53,10.815,10.815,0,0,1-5.075-.886c-1.207-.543-2.259,1.121-1.062,1.814l-.012,0Z" transform="translate(22.939 1.706)" fill="#071227"/>
    <path id="Tracé_32" data-name="Tracé 32" d="M111.692,22.166a3.171,3.171,0,0,0-2.65,2.573,5.118,5.118,0,0,0,.493,2.357c.145.388.279.783.434,1.164.265.645.363.627-.326.681-.844.069-.859,1.386,0,1.328,1.056-.066,2.074-.272,1.838-1.573-.362-2.045-2.791-4.611.479-5.554a.507.507,0,0,0-.268-.976Zm-3.912.927a3.1,3.1,0,0,0-4.2-.362c-.561.446.069,1.2.634,1.088a9.489,9.489,0,0,1,1.45-.381,1.811,1.811,0,0,1,1.279.475.591.591,0,0,0,.834-.835Zm.24,8.171a2.017,2.017,0,0,0-.566-.229,1.137,1.137,0,0,0-.989.254,1.171,1.171,0,0,0,0,1.685,1.21,1.21,0,1,0,1.45-1.921.826.826,0,0,0-1,1.3c.058.059.04.03-.058-.086l.036.058c-.053-.145-.068-.177-.044-.1a.341.341,0,0,1,0,.072l-.03-.225a.767.767,0,0,1,0,.109l.03-.221c-.048.145,0,.039,0,0a.276.276,0,0,1,.069-.119c.054-.066.062-.073.018-.033s.17-.123.076-.068c.163-.1.155-.059.058-.044l.218-.03h-.109l.213.03-.068-.018a.452.452,0,0,1,.229.134c-.055-.058-.037-.028.058.08s.062.167.036.087c0,.145.018.185,0,.119v-.054c-.022.148-.026.18,0,.1s0-.048-.04.08-.1.123-.051.062.037-.036-.054.044c.1-.073-.152.051-.022,0h-.018l.076.026A.606.606,0,0,0,108,31.25l.015.013Zm5.938,68.553a74.747,74.747,0,0,1,3.092,24.459c-.046,1.019,1.548,1.022,1.585,0a70.377,70.377,0,0,0-3.463-24.793C114.915,98.724,113.721,99.034,113.958,99.818Z" transform="translate(29.126 6.264)" fill="#071227"/>
    <path id="Tracé_33" data-name="Tracé 33" d="M92.357,74.136A43.045,43.045,0,0,1,95,66.886l-1.069.141c2.244,2.013,4.5,3.988,6.608,6.145a.8.8,0,0,0,1.246-.163c.57-1.218,1.114-2.453,1.668-3.682l.78-1.736c.189-.421.416-1.385.764-1.679.515-.432.954.583,1.259,1.022l1.087,1.562c.573.831,1.207,2.273,2.085,2.813,1.748,1.088,2.564-2.537,2.952-3.5l.7-1.715c.1-.257.529-1.334.492-1.323.167-.048,1.295,1.337,1.5,1.548.5.514.993,1.04,1.512,1.537a.822.822,0,0,0,1.16-1.164c-.533-.591-1.087-1.156-1.657-1.73a12.207,12.207,0,0,0-1.6-1.609,1.451,1.451,0,0,0-2.106.286,15.735,15.735,0,0,0-1.6,3.73,8.2,8.2,0,0,1-.863,2.142l.2.105-.41-.583-.67-.986c-.849-1.221-2.657-5.13-4.712-3.806-1,.649-1.4,2.356-1.856,3.39-.682,1.518-1.378,3.034-2.034,4.563l1.243-.159a86.089,86.089,0,0,0-6.779-5.985.692.692,0,0,0-1.138.3,57.886,57.886,0,0,0-2.538,7.471.587.587,0,1,0,1.132.312h.008Zm1.45,7.3a19.771,19.771,0,0,1,1.186-2.389c.645-1.088,1.844-.34,2.672.149s2.113,1.623,3.2,1.552c1.182-.077,1.729-1.422,2.25-2.291a7.242,7.242,0,0,1,1.088-1.708c.645-.583,1.126,0,1.645.414a3.661,3.661,0,0,0,2.429,1.128,3.516,3.516,0,0,0,2.451-1.57c.414-.527.768-1.088,1.142-1.657.5-.75.7-.83,1.522-.471a4.637,4.637,0,0,0,3.47.066c.923-.34.525-1.834-.41-1.494a3.211,3.211,0,0,1-2.611-.068,2.605,2.605,0,0,0-1.6-.453c-1.088.177-1.627,1.508-2.176,2.32-.384.569-.939,1.585-1.689,1.74s-1.261-.527-1.754-.921a2.642,2.642,0,0,0-2.538-.762c-1.152.4-1.7,1.69-2.276,2.661a5.556,5.556,0,0,1-.642,1.088l-.271.388a1.362,1.362,0,0,1-.9-.29c-.754-.326-1.478-.809-2.2-1.2-1.015-.559-2.135-1.2-3.149-.29S93.18,79.94,92.731,81.14c-.262.7.826.967,1.087.3Z" transform="translate(25.666 17.91)" fill="#fff"/>
    <path id="Tracé_34" data-name="Tracé 34" d="M147.944,78.012c-1.726-5.488-2.5-11.217-4.187-16.709-1.2-3.937-2.727-7.768-3.672-11.78-.809-3.433-1.617-7.976.656-11.032,1.373-1.852,3.734-2.715,5.9-3.208a56.984,56.984,0,0,1,9.356-1.033c5.605-.322,12.757-.913,17.23,3.2,1.251,1.15,3.111-.692,1.87-1.866-4.215-3.988-10.219-4.35-15.729-4.249a94.065,94.065,0,0,0-10.513.768,17.829,17.829,0,0,0-8.337,2.842c-3.59,2.636-4.253,7.09-3.731,11.238.577,4.567,2.2,8.9,3.712,13.22,2.2,6.27,3.194,12.876,5.293,19.184.45,1.345,2.57.778,2.139-.591l.015.013ZM107.132,24.274a2.1,2.1,0,0,0-2.157-.109.677.677,0,0,0-.243.921.685.685,0,0,0,.921.239,1.143,1.143,0,0,1,.888-.036.587.587,0,1,0,.591-1.015Z" transform="translate(29.49 6.788)" fill="#071227"/>
    <path id="Tracé_35" data-name="Tracé 35" d="M114,26.544a2.6,2.6,0,0,1,.852-.682,9.883,9.883,0,0,1,3.666-.539l4.371-.338q4.35-.362,8.734-.794c5.8-.591,11.617-1.3,17.4-2.176q8.1-1.215,16.11-2.9c4.9-1.037,9.747-1.659,14.627-2.708a116.693,116.693,0,0,0,12.474-3.418,17.917,17.917,0,0,0,6.417-3.244c1.243-1.117,2.29-2.614,3.923-3.021,1.866-.47,3.77.7,5.053,2.114a16.181,16.181,0,0,1,3.748,8.215,42.763,42.763,0,0,1,.334,9.091,17.073,17.073,0,0,1-.83,5.4,6.186,6.186,0,0,1-3.731,3.835c-3.364,1.04-6.191-1.566-9.258-2.174-3.988-.787-8.82-.145-12.884-.218q-12.6-.227-25.2-.509-9.919-.229-19.837-.49-8.852-.237-17.709-.5c-2.085-.064-4.281.072-6.347-.177-1.45-.179-2.087-1.088-2.272-2.538" transform="translate(32.05 1.868)" fill="#fff"/>
    <path id="Tracé_36" data-name="Tracé 36" d="M115.1,27.562c1.11-1.171,3.262-.855,4.742-.961q2.914-.2,5.825-.442,5.707-.468,11.394-1.12c7.563-.853,15.106-1.929,22.591-3.321,3.626-.674,7.25-1.474,10.876-2.113,3.758-.656,7.529-1.251,11.237-2.092q5.184-1.175,10.248-2.817c3.034-.985,6.029-2.055,8.337-4.321.925-.9,1.893-2.174,3.292-2.262,1.639-.08,3.085,1.331,3.988,2.537a17.235,17.235,0,0,1,2.968,9.376,44.412,44.412,0,0,1-.054,5.013,28.2,28.2,0,0,1-.541,5.132,5.73,5.73,0,0,1-2.121,3.473,4.33,4.33,0,0,1-3.879.253c-1.293-.416-2.435-1.033-3.672-1.5a15.982,15.982,0,0,0-4.516-.879c-3.361-.25-6.733.119-10.1.1-7.561-.051-15.128-.289-22.689-.46q-12.808-.285-25.615-.634-6.221-.174-12.446-.362c-2.011-.062-4.016-.077-6.028-.09-.791,0-2.176.206-2.9-.193-.45-.25-.5-.776-.584-1.247-.311-1.7-3.287-1.331-3.059.416a4.515,4.515,0,0,0,1.889,3.56c1.392.845,3.312.768,4.883.79q6.013.091,12.023.27,24.761.691,49.527,1.153c3.773.067,7.518,0,11.3-.085a29.715,29.715,0,0,1,5.172.217,18.874,18.874,0,0,1,4.4,1.516c2.98,1.259,6.216,1.591,8.82-.674s3.117-5.9,3.179-9.178c.123-6.692-.157-15.085-6.043-19.54a6.085,6.085,0,0,0-4.444-1.367A6.746,6.746,0,0,0,199.283,8a13.82,13.82,0,0,1-3.93,2.9,40.9,40.9,0,0,1-5.307,1.907c-7.706,2.417-15.587,3.581-23.479,5.148a346.489,346.489,0,0,1-48.826,6.6,5.667,5.667,0,0,0-4.161,1.5c-.925.993.557,2.487,1.494,1.494l.032.022Z" transform="translate(31.694 1.596)" fill="#071227"/>
    <path id="Tracé_37" data-name="Tracé 37" d="M192.055,27.668a6.409,6.409,0,0,1-3.535,1.3,1.772,1.772,0,0,1-.95-.17,2.045,2.045,0,0,1-.6-.623c-2.538-3.55-2.918-7.523-2.918-11.837.471-4.828,4.784-8.936,8.772-4.309a10.2,10.2,0,0,1,1.928,3.8,12.779,12.779,0,0,1,.037,8.263,8.2,8.2,0,0,1-2.737,3.577Z" transform="translate(52.075 2.831)" fill="#4ade80"/>
    <path id="Tracé_38" data-name="Tracé 38" d="M191.852,27.07a5.5,5.5,0,0,1-2.6,1.015c-.958.073-1.153-.67-1.567-1.45a15.257,15.257,0,0,1-1.548-5.1c-.362-2.923-.768-6.747,1.707-8.919,2.695-2.363,5.043,1.747,5.707,3.988,1,3.368,1.11,7.668-1.965,10.034a1.608,1.608,0,1,0,1.957,2.538c3.339-2.62,4.271-6.916,3.666-10.952-.537-3.585-2.357-8.047-6.163-9.182-3.451-1.026-6.268,1.675-7.449,4.67-1.331,3.374-.726,7.905.428,11.263.583,1.7,1.613,4.331,3.262,5.256,1.733.963,4.245-.221,5.659-1.259,1.1-.84.09-2.69-1.092-1.9Z" transform="translate(51.729 2.495)" fill="#4ade80"/>
    <path id="Tracé_39" data-name="Tracé 39" d="M198.315,20.326c1.324,4.517,3.264,9.846,8.668,10.411,1.392.145,1.721-2.222.33-2.461-4.213-.726-5.826-4.891-6.982-8.505a1.046,1.046,0,0,0-2.017.555Zm1.331-6.276a1.12,1.12,0,0,0,0-2.24A1.12,1.12,0,0,0,199.646,14.05Zm-9.729,5.862a16.239,16.239,0,0,0,4.6,12.689c1.2,1.184,2.94-.595,1.838-1.838a16.678,16.678,0,0,1-4.394-10.876,1.023,1.023,0,0,0-2.045,0Zm-8.775-2.725A17.04,17.04,0,0,0,183.4,29.072a.693.693,0,0,0,1.2-.7,16.177,16.177,0,0,1-2.259-10.857c.119-.78-1.066-1.117-1.192-.33ZM167,19.274a16.9,16.9,0,0,0,.645,9.11c.3.776,1.537.479,1.273-.362a17.622,17.622,0,0,1-.849-8.464c.117-.7-.941-1-1.087-.3l.018.014Zm-13.952,3.3a10.966,10.966,0,0,0,.362,6.3.62.62,0,1,0,1.2-.33,14.318,14.318,0,0,1-.362-5.645c.134-.776-1.037-1.116-1.193-.329h0Zm-14.494,1.236a9.306,9.306,0,0,0-.29,4.028c.119.848,1.45.5,1.3-.362a7.667,7.667,0,0,1,.206-3.332.632.632,0,1,0-1.218-.338v0ZM124.506,25.2a3.318,3.318,0,0,0,.13,1.762.7.7,0,0,0,.837.475.685.685,0,0,0,.475-.837,2.056,2.056,0,0,1-.181-1.052.678.678,0,0,0-.457-.8.659.659,0,0,0-.8.456Z" transform="translate(35.121 3.345)" fill="#071227"/>
    <path id="Tracé_40" data-name="Tracé 40" d="M135.99,11.424a10.788,10.788,0,0,1,3.6-1.45,37.479,37.479,0,0,1,5.938-1.243,24.357,24.357,0,0,1,6.706.362c5.651,1.022,13.294,6.859,9.669,13.377a4.756,4.756,0,0,1-2.691,2.312,3.171,3.171,0,0,1-3.312-.891,2.618,2.618,0,0,1-2.419,2.052,4.045,4.045,0,0,1-3.059-1.287,2.684,2.684,0,0,1-5.136.993,5.024,5.024,0,0,1-.935,1.79c-1.284,1.36-2.9-.108-3.7-1.291a10.029,10.029,0,0,1-1.275-3.515,13.056,13.056,0,0,0-1.124-3.574" transform="translate(38.405 2.444)" fill="#fff"/>
    <path id="Tracé_41" data-name="Tracé 41" d="M145.614,13.877c2-1.95,5.267-2.429,7.925-2.928,4.712-.889,10.109-.185,13.952,2.9,1.645,1.317,3.2,3.183,3.288,5.384.069,1.772-1.993,6.129-4.136,3.863a1.661,1.661,0,0,0-2.752.726c-.34,1.424-1.982.724-2.722.036a1.671,1.671,0,0,0-2.817,1.164c-.145,1.279-1.6,1.019-2.059.159a1.671,1.671,0,0,0-3.02.4c-.324.866-.308,1.387-1.07.724a4.6,4.6,0,0,1-1.243-2.109c-.6-1.893-.8-3.789-1.762-5.565s-3.585-.221-2.729,1.6c1.363,2.878.986,6.224,3.535,8.545a3.889,3.889,0,0,0,3.756,1.087c1.512-.5,2.174-2,2.7-3.386l-3.02.4a4.456,4.456,0,0,0,4.825,2.3,4.548,4.548,0,0,0,3.386-4.127l-2.817,1.143a5.61,5.61,0,0,0,5.007,1.663,4.3,4.3,0,0,0,3.226-3.157l-2.751.724c2.421,2.556,6.249,1.552,8.142-1.088a8.449,8.449,0,0,0,1.12-7.692c-1.878-5.212-7.551-8.265-12.757-8.991a28.708,28.708,0,0,0-11.6.983,13.981,13.981,0,0,0-4.48,1.747m9.043,36.284a48.328,48.328,0,0,1,21.294,1.088.731.731,0,0,0,.388-1.406,42.213,42.213,0,0,0-21.957-.668c-.652.145-.362,1.125.275,1v-.015Zm-46.466,96.254a11.32,11.32,0,0,1-4.35,8.029c-1.519,1.128-.087,3.709,1.514,2.588a12.22,12.22,0,0,0,5.373-10.617,1.277,1.277,0,0,0-2.537,0Zm49.024-12.362a30.592,30.592,0,0,0,.986,9.128,1.391,1.391,0,0,0,2.683-.724,54.746,54.746,0,0,1-1.207-8.388,1.232,1.232,0,0,0-2.462,0Z" transform="translate(28.831 2.093)" fill="#071227"/>
    <path id="Tracé_42" data-name="Tracé 42" d="M160.287,92.139a26.578,26.578,0,0,1,4.35,7.706q1.783,4.332,3.147,8.82a138.959,138.959,0,0,1,3.726,18.1c.113.692,1.251.529,1.218-.163a76.328,76.328,0,0,0-3.881-18.945q-1.414-4.437-3.264-8.717a24.3,24.3,0,0,0-4.563-7.548c-.471-.492-1.193.24-.724.744Z" transform="translate(45.274 25.932)" fill="#4ade80"/>
    <path id="Tracé_43" data-name="Tracé 43" d="M78.974,86.006A27.4,27.4,0,0,1,83.9,83.723q1.2-.412,2.443-.7a17.132,17.132,0,0,0,2.683-.609,1.14,1.14,0,0,0-.3-2.226c-1.811-.163-3.987.75-5.633,1.41a26.217,26.217,0,0,0-5.108,2.725c-1.029.7-.112,2.331.986,1.686Z" transform="translate(21.782 22.785)" fill="#071227"/>
    <path id="Tracé_44" data-name="Tracé 44" d="M187.9,12.114c.116.99.862,1.527,1.355,2.347s.692,1.649,1.12,2.447a1.426,1.426,0,0,0,2.636-.726,5.627,5.627,0,0,0-1.261-3.189c-.623-.845-1.555-2.081-2.715-2.023-.559.026-1.214.5-1.134,1.134v.012Z" transform="translate(53.166 3.105)" fill="#fff"/>
    <path id="Tracé_45" data-name="Tracé 45" d="M59.642,191.479A29.912,29.912,0,0,0,73.594,182.6c3.318,4.024,8.911,5.687,14.105,5.22s10.053-2.805,14.439-5.633a11.959,11.959,0,0,0,18.56,4.1c.3-.254.652-.539,1.036-.46a1.248,1.248,0,0,1,.563.362,15.186,15.186,0,0,0,18.394.782" transform="translate(16.692 51.798)" fill="#9bf8bd"/>
    <path id="Tracé_46" data-name="Tracé 46" d="M76.7,244.513a31.943,31.943,0,0,0,14.5-9.24H89.42a17.322,17.322,0,0,0,13.707,5.8c5.93-.1,11.553-2.661,16.435-5.854l-1.952-.515a13.819,13.819,0,0,0,8.749,7.225,13.417,13.417,0,0,0,6.184.1A13.154,13.154,0,0,0,135.481,241a7.278,7.278,0,0,0,2.62-1.656c.443-.218.406-.342-.112-.364.173.153.362.3.536.446a13.218,13.218,0,0,0,1.128.837,15.159,15.159,0,0,0,2.44,1.309,17.067,17.067,0,0,0,5.437,1.327,16.268,16.268,0,0,0,10.6-2.853c1.558-1.088.054-3.7-1.508-2.578a13.721,13.721,0,0,1-9.426,2.49,13.472,13.472,0,0,1-4.593-1.3,13.2,13.2,0,0,1-2.069-1.261,4.146,4.146,0,0,0-2.095-1.2c-1-.086-1.639.588-2.375,1.135a10.235,10.235,0,0,1-2.411,1.327,11.3,11.3,0,0,1-5.387.7,10.707,10.707,0,0,1-8.193-6.094,1.451,1.451,0,0,0-1.954-.515c-4.422,2.767-9.312,5.283-14.627,5.532-4.5.214-9.325-1.247-12.326-4.763a1.243,1.243,0,0,0-1.751,0,28.883,28.883,0,0,1-13.413,8.526,1.281,1.281,0,0,0,.681,2.469l.009,0Zm150.207-15.671a10.075,10.075,0,0,0,12.492-3.314l-1.991.523c6.493,4.545,16.285,3.69,21.624-2.263a1.413,1.413,0,0,0-2-2,14.538,14.538,0,0,1-18.157,1.748,1.481,1.481,0,0,0-1.991.521,7.545,7.545,0,0,1-8.993,2.44C226.561,225.946,225.593,228.226,226.905,228.842Zm94.376-64.269a13.243,13.243,0,0,0,10.266-4.549l-2.266-.6a9.539,9.539,0,0,0,6.294,6.779,9.219,9.219,0,0,0,9.316-2.451,1.467,1.467,0,0,0-2.073-2.074A6.611,6.611,0,0,1,331.9,158.7a1.364,1.364,0,0,0-2.266-.6,11.057,11.057,0,0,1-8.338,4.282,1.088,1.088,0,0,0,0,2.174l-.01.012Zm-319.217,12a12.189,12.189,0,0,0,10.468-5.96H10.41a13.848,13.848,0,0,0,10.712,7.123c1.729.191,1.715-2.52,0-2.711a11.511,11.511,0,0,1-8.587-5.649,1.238,1.238,0,0,0-2.118,0,9.742,9.742,0,0,1-8.337,4.851,1.173,1.173,0,0,0,0,2.345H2.066ZM249.71,6.331a19.452,19.452,0,0,1,8-4.886l-.87-.871a50.7,50.7,0,0,1-4.9,9.335.812.812,0,0,0,.29,1.088,86.128,86.128,0,0,1,10.2,6.851l.171-1.335a69.3,69.3,0,0,0-6.888,3.154c-.8.453-.265,1.85.646,1.526a70.475,70.475,0,0,0,7.094-3.215.845.845,0,0,0,0-1.451,91.167,91.167,0,0,0-10.415-6.909l.29,1.088A42.11,42.11,0,0,0,258.2.938a.727.727,0,0,0-.87-.871,23.531,23.531,0,0,0-8.522,5.358.637.637,0,0,0,.9.9l0,0Zm3.246,23.337c.768.421,1.555.809,2.335,1.207s1.413-.75.659-1.13-1.554-.809-2.349-1.182c-.724-.362-1.377.7-.645,1.1ZM242.766,46.4a26.035,26.035,0,0,0,4.549,8.074c.406.493,1.148.058,1.174-.485.149-2.958.215-5.927.236-8.885a.747.747,0,0,0-1.494,0q-.153,4.441-.117,8.885l1.175-.486a21.036,21.036,0,0,1-4.456-7.4c-.235-.67-1.3-.385-1.069.293Zm-7.136,2.828q0-1.476-.024-2.941a.61.61,0,0,0-1.219,0q-.031,1.47-.028,2.941a.637.637,0,0,0,1.272,0Zm5.076-46.608,1.178-1.17A.6.6,0,0,0,241.039.6l-1.174,1.175a.595.595,0,1,0,.841.84Z" transform="translate(0 0)" fill="#071227"/>
  </g>
</svg>
