<svg xmlns="http://www.w3.org/2000/svg" xmlns:xlink="http://www.w3.org/1999/xlink" width="1579.228" height="397.681" viewBox="0 0 1579.228 397.681">
  <defs>
    <clipPath id="clip-path">
      <rect id="Rectangle_2814" data-name="Rectangle 2814" width="1579.228" height="397.681" fill="none"/>
    </clipPath>
  </defs>
  <g id="Groupe_5558" data-name="Groupe 5558" transform="translate(0 -34.159)">
    <g id="Groupe_5557" data-name="Groupe 5557" transform="translate(0 34.159)">
      <g id="Groupe_5556" data-name="Groupe 5556" clip-path="url(#clip-path)">
        <path id="Tracé_2181" data-name="Tracé 2181" d="M2992.3,671.372a140.652,140.652,0,0,1,9.414-28.512c.587,9.015.538,17.459,1.126,26.474a248.76,248.76,0,0,0,25.888-3.514L3008.125,678a4.3,4.3,0,0,0-2.772,4.955q.65,14.56,1.3,29.12-3.984-12.792-7.969-25.585c-.652-2.095-1.4-4.325-3.135-5.664a10.821,10.821,0,0,0-4.961-1.685l-26.7-4.4c10.646-.056,17.758-3.308,28.4-3.364" transform="translate(-1449.495 -314.392)" fill="#fff"/>
        <path id="Tracé_2182" data-name="Tracé 2182" d="M1095.981,18.944,111.85,0,0,223.773c158.668-23.807,322.4-14.374,484.235-4.866l247.3,14.529L554.679,283.182l500.058,12.371-49.191,22.066,276.4-1.229-91.063,24.744,254.672-2.874-68.445,39.264a632.437,632.437,0,0,0,168.5-19.778,7.543,7.543,0,0,0,4.278-11.613,468.717,468.717,0,0,0-63.2-73.437,186.508,186.508,0,0,1,16.182,40.085,1245.951,1245.951,0,0,0-108-95.063l30.871,39.54c-64.438-37.748-117.058-88.156-168.951-138.009,1.686,1.453-.059,4.09-2.385,4.414s-4.605-.8-6.638-1.878A1035.3,1035.3,0,0,1,1098.7,25.469Z" fill="#99ffb3"/>
      </g>
    </g>
  </g>
</svg>
