<svg xmlns="http://www.w3.org/2000/svg" width="58" height="54" viewBox="0 0 58 54">
  <g id="Groupe_5579" data-name="Groupe 5579" transform="translate(-1809 -55)">
    <rect id="Rectangle_2737" data-name="Rectangle 2737" width="58" height="54" rx="19" transform="translate(1809 55)" fill="#99ffb1"/>
    <g id="Groupe_5428" data-name="Groupe 5428" transform="translate(1828.161 70)">
      <path id="Tracé_10" data-name="Tracé 10" d="M23.678,23.379a1,1,0,0,1-1-1v-2.46A3.924,3.924,0,0,0,18.758,16H8.919A3.919,3.919,0,0,0,5,19.919v2.46a1,1,0,0,1-2,0v-2.46A5.919,5.919,0,0,1,8.919,14h9.839a5.926,5.926,0,0,1,5.919,5.919v2.46A1,1,0,0,1,23.678,23.379Z" transform="translate(-4 -0.379)"/>
      <path id="Ellipse_4" data-name="Ellipse 4" d="M5-1A6,6,0,1,1-1,5,6.007,6.007,0,0,1,5-1ZM5,9A4,4,0,1,0,1,5,4,4,0,0,0,5,9Z" transform="translate(4.792 0)"/>
    </g>
  </g>
</svg>
