<svg xmlns="http://www.w3.org/2000/svg" width="58" height="54" viewBox="0 0 58 54">
  <g id="Groupe_5580" data-name="Groupe 5580" transform="translate(-237 -48)">
    <rect id="Rectangle_2772" data-name="Rectangle 2772" width="58" height="54" rx="19" transform="translate(237 48)" fill="#fff"/>
    <g id="Groupe_5508" data-name="Groupe 5508" transform="translate(133 23)">
      <g id="Groupe_5" data-name="Groupe 5" transform="translate(122.528 45.866)">
        <path id="Ligne_6" data-name="Ligne 6" d="M21.7.75H0A.75.75,0,0,1-.75,0,.75.75,0,0,1,0-.75H21.7a.75.75,0,0,1,.75.75A.75.75,0,0,1,21.7.75Z" fill="#0b0b0b"/>
        <path id="Ligne_7" data-name="Ligne 7" d="M15.024.75H0A.75.75,0,0,1-.75,0,.75.75,0,0,1,0-.75H15.024a.75.75,0,0,1,.75.75A.75.75,0,0,1,15.024.75Z" transform="translate(0 6.677)" fill="#0b0b0b"/>
        <path id="Ligne_8" data-name="Ligne 8" d="M8.346.75H0A.75.75,0,0,1-.75,0,.75.75,0,0,1,0-.75H8.346A.75.75,0,0,1,9.1,0,.75.75,0,0,1,8.346.75Z" transform="translate(0 13.354)" fill="#0b0b0b"/>
      </g>
    </g>
  </g>
</svg>
