<svg xmlns="http://www.w3.org/2000/svg" width="131.007" height="62.569" viewBox="0 0 131.007 62.569">
  <g id="Groupe_7" data-name="Groupe 7" transform="translate(-825 -240.951)">
    <g id="Unknown" transform="translate(825 240.951)">
      <ellipse id="Ellipse_1" data-name="Ellipse 1" cx="23.836" cy="26.191" rx="23.836" ry="26.191" transform="translate(9.634 10.187)" fill="#fe99e5"/>
      <path id="Tracé_47" data-name="Tracé 47" d="M96.35,184.017q-.248,0-.486-.01a13.951,13.951,0,0,1-10.8-6.444,1.08,1.08,0,0,1,1.869-1.083,11.819,11.819,0,0,0,9.019,5.368c3.657.157,7.07-1.875,9.871-5.876a1.08,1.08,0,0,1,1.77,1.239C103.708,182.768,99.418,184.017,96.35,184.017Z" transform="translate(-62.302 -131.195)" fill="#fe99e5"/>
      <ellipse id="Ellipse_2" data-name="Ellipse 2" cx="23.836" cy="26.191" rx="23.836" ry="26.191" transform="translate(9.634 10.187)" fill="#fe99e5"/>
      <path id="Tracé_48" data-name="Tracé 48" d="M96.35,184.017q-.248,0-.486-.01a13.951,13.951,0,0,1-10.8-6.444,1.08,1.08,0,0,1,1.869-1.083,11.819,11.819,0,0,0,9.019,5.368c3.657.157,7.07-1.875,9.871-5.876a1.08,1.08,0,0,1,1.77,1.239C103.708,182.768,99.418,184.017,96.35,184.017Z" transform="translate(-62.302 -131.195)" fill="#fe99e5"/>
      <ellipse id="Ellipse_3" data-name="Ellipse 3" cx="23.836" cy="26.191" rx="23.836" ry="26.191" transform="translate(9.634 10.187)" fill="#fe99e5"/>
      <path id="Tracé_49" data-name="Tracé 49" d="M96.35,184.017q-.248,0-.486-.01a13.951,13.951,0,0,1-10.8-6.444,1.08,1.08,0,0,1,1.869-1.083,11.819,11.819,0,0,0,9.019,5.368c3.657.157,7.07-1.875,9.871-5.876a1.08,1.08,0,0,1,1.77,1.239C103.708,182.768,99.418,184.017,96.35,184.017Z" transform="translate(-62.302 -131.195)" fill="#bf4ba2"/>
      <path id="Tracé_50" data-name="Tracé 50" d="M16.416,45.774c-5.984,1.461-6.085,5.036-5.591,6.925,1.03,1.853.358,1.37,0,0a76.065,76.065,0,0,0-5.611-8.156c-17.3-22.81,19.179-34.97,28.514-34.15,12.322,0,39.042,9.526,25.815,26.765-5.887,7.672-12.9,1.406-20.435.193a37.234,37.234,0,0,1-4.482-.881C28.317,34.641,10.878,30.764,16.416,45.774Z" transform="translate(-0.622 -10.355)" fill="#bf4ba2"/>
    </g>
    <g id="Unknown-2" data-name="Unknown" transform="translate(893.5 240.951)">
      <ellipse id="Ellipse_1-2" data-name="Ellipse 1" cx="23.836" cy="26.191" rx="23.836" ry="26.191" transform="translate(5.2 10.187)" fill="#fefbfa"/>
      <path id="Tracé_47-2" data-name="Tracé 47" d="M96.366,184.017q.248,0,.486-.01a13.951,13.951,0,0,0,10.8-6.444,1.08,1.08,0,0,0-1.869-1.083,11.819,11.819,0,0,1-9.019,5.368c-3.657.157-7.07-1.875-9.871-5.876a1.08,1.08,0,0,0-1.77,1.239C89.008,182.768,93.3,184.017,96.366,184.017Z" transform="translate(-67.907 -131.195)" fill="#f2bdec"/>
      <ellipse id="Ellipse_2-2" data-name="Ellipse 2" cx="23.836" cy="26.191" rx="23.836" ry="26.191" transform="translate(5.2 10.187)" fill="#fefbfa"/>
      <path id="Tracé_48-2" data-name="Tracé 48" d="M96.366,184.017q.248,0,.486-.01a13.951,13.951,0,0,0,10.8-6.444,1.08,1.08,0,0,0-1.869-1.083,11.819,11.819,0,0,1-9.019,5.368c-3.657.157-7.07-1.875-9.871-5.876a1.08,1.08,0,0,0-1.77,1.239C89.008,182.768,93.3,184.017,96.366,184.017Z" transform="translate(-67.907 -131.195)" fill="#f2bdec"/>
      <ellipse id="Ellipse_3-2" data-name="Ellipse 3" cx="23.836" cy="26.191" rx="23.836" ry="26.191" transform="translate(5.2 10.187)" fill="#99ffb1"/>
      <path id="Tracé_49-2" data-name="Tracé 49" d="M96.366,184.017q.248,0,.486-.01a13.951,13.951,0,0,0,10.8-6.444,1.08,1.08,0,0,0-1.869-1.083,11.819,11.819,0,0,1-9.019,5.368c-3.657.157-7.07-1.875-9.871-5.876a1.08,1.08,0,0,0-1.77,1.239C89.008,182.768,93.3,184.017,96.366,184.017Z" transform="translate(-67.907 -131.195)" fill="#231f20"/>
      <path id="Tracé_50-2" data-name="Tracé 50" d="M47.335,45.774c5.984,1.461,6.085,5.036,5.591,6.925-1.03,1.853-.358,1.37,0,0a76.065,76.065,0,0,1,5.611-8.156c17.3-22.81-19.179-34.97-28.514-34.15-12.322,0-39.042,9.526-25.815,26.765,5.887,7.672,12.9,1.406,20.435.193a37.235,37.235,0,0,0,4.482-.881C35.434,34.641,52.873,30.764,47.335,45.774Z" transform="translate(-0.622 -10.355)" fill="#71d588"/>
    </g>
  </g>
</svg>
