<svg xmlns="http://www.w3.org/2000/svg" xmlns:xlink="http://www.w3.org/1999/xlink" width="243.179" height="267.366" viewBox="0 0 243.179 267.366">
  <defs>
    <clipPath id="clip-path">
      <rect id="Rectangle_2800" data-name="Rectangle 2800" width="243.179" height="267.366" fill="none"/>
    </clipPath>
  </defs>
  <g id="Groupe_5541" data-name="Groupe 5541" transform="translate(0 0)">
    <g id="Groupe_5539" data-name="Groupe 5539" transform="translate(0 0)" clip-path="url(#clip-path)">
      <path id="Tracé_2120" data-name="Tracé 2120" d="M730.937,262.013c-5.9-.012-14.849,3.406-23.809,6.839L668.881,272.4l1.013,13.424,26.6-.253,22.8-1.52Z" transform="translate(-535.54 -209.78)" fill="#ff99e5"/>
      <path id="Tracé_2121" data-name="Tracé 2121" d="M668.692,284.92a.3.3,0,0,1-.3-.276l-1.013-13.424a.3.3,0,0,1,.271-.32l38.206-3.542c8.789-3.367,17.871-6.844,23.847-6.844a.327.327,0,0,1,.287.145.3.3,0,0,1,.008.294l-11.652,22.036a.3.3,0,0,1-.244.159l-22.8,1.52-26.612.254ZM668,271.468l.97,12.852,26.316-.251,22.613-1.508,11.338-21.443c-5.88.174-14.682,3.547-23.2,6.812a.3.3,0,0,1-.079.019Z" transform="translate(-534.338 -208.579)" fill="#231f20"/>
      <path id="Tracé_2122" data-name="Tracé 2122" d="M83.382,164.839c-8.022,3.078-26.344.923-44.985-1.393l-27.2-11.778C4.749,149.776.961,146.11,1.569,139.51l.038-1.076a5.249,5.249,0,0,1,6.144-4.986l49.542,8.6,17.9,1.79a8.564,8.564,0,0,1,7.7,8.2Z" transform="translate(-1.206 -106.781)" fill="#ff99e5"/>
      <path id="Tracé_2123" data-name="Tracé 2123" d="M234.955,290.824l-29.316,7.328-4.737-7.7-14.337-6.206c18.641,2.317,36.963,4.471,44.985,1.394,0,0,1.306,2,3.4,5.187" transform="translate(-149.373 -227.579)" fill="#ff99e5"/>
      <path id="Tracé_2124" data-name="Tracé 2124" d="M2.015,158.773c27.973,7.7,55.105,12.357,81.295,13.6" transform="translate(-1.613 -127.121)" fill="#ff99e5"/>
      <path id="Tracé_2125" data-name="Tracé 2125" d="M335.942,793.93a67.1,67.1,0,0,1-17.1,40.275c-2.556,2.017-5.085,4.178-7.587,6.507l-29.635,35.207c-3.538,5.48-7.661,7.755-12.411,6.587l-6.5-1.627a27.037,27.037,0,0,0,4.665-6.258c6.339-10.627,12.206-21.53,18.071-32.426,7.227-13.426,14.461-26.866,20.657-40.8,4.611-10.366,8.678-21.2,10.392-32.354L334.923,784.4a23.15,23.15,0,0,1,1.019,9.525" transform="translate(-210.335 -615.734)" fill="#ff99e5"/>
      <path id="Tracé_2126" data-name="Tracé 2126" d="M577.734,850.379l-12.14,7.763A141.258,141.258,0,0,0,544.3,871.9a67.1,67.1,0,0,0,17.1-40.275,23.148,23.148,0,0,0-1.019-9.525l.395.329,8.157-6.305a15.561,15.561,0,0,1,6.979,6.75c2.251,4.18,2.853,9.052,2.933,13.8a70.195,70.195,0,0,1-1.116,13.705" transform="translate(-435.798 -653.429)" fill="#ff99e5"/>
      <path id="Tracé_2127" data-name="Tracé 2127" d="M307.043,765.937c-1.714,11.154-5.781,21.988-10.392,32.354-6.2,13.931-13.43,27.371-20.657,40.8-5.865,10.9-11.732,21.8-18.071,32.426a27.039,27.039,0,0,1-4.665,6.258l-.588-.147c-11.512-7.713,36.453-110.484,53.444-112.461Z" transform="translate(-200.889 -612.627)" fill="#ff99e5"/>
      <path id="Tracé_2128" data-name="Tracé 2128" d="M364.112,803.707c-.675,25.667-30.769,78.918-51,106.72" transform="translate(-250.696 -643.488)" fill="#ff99e5"/>
      <path id="Tracé_2129" data-name="Tracé 2129" d="M791.3,27.665q4.949-.115,9.88-.6a12.525,12.525,0,0,0,5.3-1.37,2.825,2.825,0,0,0,1.107-1.064,1.344,1.344,0,0,0-.095-1.462,2.034,2.034,0,0,0-1.285-.532,37.583,37.583,0,0,0-13.991.822c-1.166.258-2.628.237-3.384,1.291-1.416,1.975.764,2.953,2.466,2.914" transform="translate(-631.215 -17.855)" fill="#ff99e5"/>
      <path id="Tracé_2130" data-name="Tracé 2130" d="M790,26.753a3.4,3.4,0,0,1-2.949-1.317,1.884,1.884,0,0,1,.336-2.071,3.913,3.913,0,0,1,2.794-1.271c.27-.043.526-.085.769-.138a37.408,37.408,0,0,1,14.1-.825,2.294,2.294,0,0,1,1.467.632,1.628,1.628,0,0,1,.134,1.795,3.047,3.047,0,0,1-1.218,1.184,12.7,12.7,0,0,1-5.428,1.411c-3.263.321-6.594.523-9.9.6H790m.1-.3h0Zm10.345-5.067a43.09,43.09,0,0,0-9.363,1.154c-.26.058-.536.1-.8.145a3.428,3.428,0,0,0-2.4,1.029,1.36,1.36,0,0,0-.293,1.443,2.905,2.905,0,0,0,2.51,1c3.293-.077,6.609-.278,9.857-.6a12.219,12.219,0,0,0,5.178-1.328,2.489,2.489,0,0,0,.995-.945,1.044,1.044,0,0,0-.055-1.13,1.79,1.79,0,0,0-1.1-.432,30.062,30.062,0,0,0-4.519-.337" transform="translate(-630.016 -16.643)" fill="#231f20"/>
      <path id="Tracé_2131" data-name="Tracé 2131" d="M1147.435,219.382a12.335,12.335,0,0,1-.442,5.267,26.705,26.705,0,0,1-1.505,3.954q-1.109,2.41-2.456,4.708a11.815,11.815,0,0,1-2.687,3.406c-4.777,3.8-9.177-.887-10.082-5.362a17.577,17.577,0,0,1,.1-7.359,16.312,16.312,0,0,1,4.46-8.09,8.784,8.784,0,0,1,6.337-2.835c3.286.185,5.783,3.183,6.271,6.311" transform="translate(-904.675 -170.588)" fill="#ff99e5"/>
      <path id="Tracé_2132" data-name="Tracé 2132" d="M1149.216,219.382a12.349,12.349,0,0,1-.442,5.267,5.322,5.322,0,0,1-3.493-4.239c-3.388,3.445-8.4,5.306-13.133,3.587a16.315,16.315,0,0,1,4.46-8.09,8.785,8.785,0,0,1,6.337-2.835c3.286.185,5.783,3.183,6.271,6.311" transform="translate(-906.456 -170.588)" fill="#ff99e5"/>
      <path id="Tracé_2133" data-name="Tracé 2133" d="M1135.577,237.21a5.017,5.017,0,0,1-1.728-.311c-2.367-.864-4.455-3.612-5.076-6.684a17.931,17.931,0,0,1,.106-7.485,16.561,16.561,0,0,1,4.543-8.238c1.194-1.161,3.638-3.084,6.562-2.919a6.575,6.575,0,0,1,4.385,2.145,8.394,8.394,0,0,1,2.164,4.418,12.543,12.543,0,0,1-.449,5.394,26.969,26.969,0,0,1-1.522,4c-.741,1.609-1.572,3.2-2.47,4.734a12.112,12.112,0,0,1-2.758,3.489,6.046,6.046,0,0,1-3.757,1.459m4.053-25.05c-2.559,0-4.712,1.711-5.792,2.76a15.969,15.969,0,0,0-4.376,7.942,17.329,17.329,0,0,0-.1,7.234c.582,2.878,2.513,5.445,4.695,6.241a4.942,4.942,0,0,0,4.908-1.054,11.6,11.6,0,0,0,2.615-3.323c.889-1.515,1.711-3.091,2.443-4.683a26.386,26.386,0,0,0,1.489-3.909,11.958,11.958,0,0,0,.434-5.14,6.91,6.91,0,0,0-5.992-6.058c-.107-.006-.215-.009-.32-.009" transform="translate(-903.478 -169.387)" fill="#231f20"/>
      <path id="Tracé_2134" data-name="Tracé 2134" d="M1149.216,219.382a12.349,12.349,0,0,1-.442,5.267,5.322,5.322,0,0,1-3.493-4.239c-3.388,3.445-8.4,5.306-13.133,3.587a16.315,16.315,0,0,1,4.46-8.09,8.785,8.785,0,0,1,6.337-2.835c3.286.185,5.783,3.183,6.271,6.311" transform="translate(-906.456 -170.588)" fill="#fff"/>
      <path id="Tracé_2135" data-name="Tracé 2135" d="M1147.574,223.747a.294.294,0,0,1-.084-.012,5.482,5.482,0,0,1-3.572-3.946c-3.775,3.6-8.74,4.86-13.072,3.288a.3.3,0,0,1-.19-.347,16.567,16.567,0,0,1,4.543-8.238c1.194-1.161,3.638-3.084,6.563-2.919a6.576,6.576,0,0,1,4.385,2.145,8.391,8.391,0,0,1,2.163,4.418,12.538,12.538,0,0,1-.449,5.394.3.3,0,0,1-.288.218M1131.3,222.6c4.2,1.4,8.987.037,12.566-3.6a.3.3,0,0,1,.506.147,5.151,5.151,0,0,0,3,3.918,11.714,11.714,0,0,0,.351-4.837,6.91,6.91,0,0,0-5.992-6.058c-2.7-.153-4.988,1.658-6.112,2.751a15.93,15.93,0,0,0-4.315,7.682" transform="translate(-905.255 -169.387)" fill="#231f20"/>
      <path id="Tracé_2136" data-name="Tracé 2136" d="M860.386,42.026,833.031,21l-6.333-3.8-.195.228c-2.115-4.476-5.193-11.121-9.565-11.922a22.173,22.173,0,0,1-2.307-.294c-.884-.261-1.627-.9-2.526-1.1-.579-.129-1.184-.066-1.769-.157a9.039,9.039,0,0,1-2.829-1.28,6.28,6.28,0,0,0-5.438-.155,3.225,3.225,0,0,1-1.32.378,3.808,3.808,0,0,1-1.626-.757c-1.885-1.092-4.251-.6-6.365-.07L784.9,4.029c-1.165.29-3.012.793-3.332,2.143a.957.957,0,0,0,.027.62c.2.434.782.494,1.26.486a50.388,50.388,0,0,0,8.478-.869c-1.517.257-3.409.927-4.18,2.258a.575.575,0,0,0-.1.462.614.614,0,0,0,.385.31,6.863,6.863,0,0,0,2.075.483A15.846,15.846,0,0,0,792.5,9.73a50.961,50.961,0,0,1,10.81-.115,30.265,30.265,0,0,0-6.724,1.91,6.5,6.5,0,0,0-2.008,1.1,2.562,2.562,0,0,0-.939,2.014,1.215,1.215,0,0,0,.271.731,1.776,1.776,0,0,0,1.462.368,71.571,71.571,0,0,0,11.016-1.654c4.114-.861,9.019,3.015,5.229,6.869a7.537,7.537,0,0,1-2.116,1.682c-2.446,1.126-5.171-.525-7.713-1.411a13.731,13.731,0,0,0-8.854-.035c-1.138.386-2.435,1.493-1.849,2.542a2.025,2.025,0,0,0,.694.655c2.636,1.73,5.819,2.125,8.76,3.085,3.076,1,5.663,2.776,8.779,3.835a22.558,22.558,0,0,0,3.24.924,14.847,14.847,0,0,0,3.647.152L834.55,48.613l-22.8,8.359-8.106,13.677c-.084.072-.169.142-.253.213,15.033-1.7,39.3-1.332,48.366,11.917l5.331-16.436c8.106-12.91,7.252-19.678,3.293-24.317" transform="translate(-625.728 -1.192)" fill="#ff99e5"/>
      <path id="Tracé_2137" data-name="Tracé 2137" d="M850.561,81.884a.3.3,0,0,1-.247-.13c-3.987-5.824-11.305-9.673-21.75-11.44-10.267-1.737-20.907-.964-26.335-.349A.3.3,0,0,1,802,69.44l.131-.11.085-.072,8.08-13.634a.3.3,0,0,1,.154-.128l22.325-8.186L814.9,31.494a14.96,14.96,0,0,1-3.6-.164,22.847,22.847,0,0,1-3.283-.935,36.253,36.253,0,0,1-4.366-1.916,33.757,33.757,0,0,0-4.411-1.918c-.869-.284-1.78-.523-2.66-.754a20.377,20.377,0,0,1-6.17-2.365,2.3,2.3,0,0,1-.791-.759,1.406,1.406,0,0,1-.08-1.226,3.493,3.493,0,0,1,2.094-1.746,13.978,13.978,0,0,1,9.048.035c.531.185,1.077.406,1.605.619,2,.807,4.061,1.642,5.885.8a7.335,7.335,0,0,0,2.028-1.62c1.287-1.309,1.611-2.735.911-4.016a5.657,5.657,0,0,0-5.866-2.35,71.813,71.813,0,0,1-11.061,1.66,2.01,2.01,0,0,1-1.7-.468,1.5,1.5,0,0,1-.346-.91,2.854,2.854,0,0,1,1.039-2.258,6.792,6.792,0,0,1,2.1-1.154,37.922,37.922,0,0,1,4.584-1.5,50.753,50.753,0,0,0-8.526.278l-.347.041a14.065,14.065,0,0,1-2.7.15,7.13,7.13,0,0,1-2.165-.5.9.9,0,0,1-.555-.487.872.872,0,0,1,.12-.711A3.91,3.91,0,0,1,787.027,6a50.812,50.812,0,0,1-5.373.381c-.3,0-1.222.021-1.537-.659a1.232,1.232,0,0,1-.046-.814c.374-1.574,2.441-2.088,3.551-2.364L791.484.587c2.269-.565,4.647-1.022,6.588.1.125.072.248.152.372.231a2.392,2.392,0,0,0,1.116.486,2.432,2.432,0,0,0,1-.274l.2-.082a6.591,6.591,0,0,1,5.7.17c.182.1.362.2.543.308a6.5,6.5,0,0,0,2.188.939,6.531,6.531,0,0,0,.755.057,5.671,5.671,0,0,1,1.033.1,5.659,5.659,0,0,1,1.429.6,6.007,6.007,0,0,0,1.116.506,5.942,5.942,0,0,0,1.272.179,9.089,9.089,0,0,1,1,.108c4.4.806,7.4,7.051,9.6,11.708a.3.3,0,0,1,.258.024l6.333,3.8.028.019,27.355,21.023a.3.3,0,0,1,.045.043,12.158,12.158,0,0,1,2.948,9.274c-.331,4.219-2.358,9.245-6.2,15.364l-5.319,16.4a.3.3,0,0,1-.242.2.279.279,0,0,1-.043,0M814.786,68.652a84.142,84.142,0,0,1,13.878,1.072c10.318,1.746,17.647,5.513,21.8,11.2l5.147-15.869a.309.309,0,0,1,.031-.067c6.958-11.082,7.988-18.467,3.339-23.94L831.661,20.056l-6.1-3.659-.03.035a.3.3,0,0,1-.5-.067l-.092-.195c-2.031-4.3-5.1-10.8-9.257-11.56a8.373,8.373,0,0,0-.937-.1,6.483,6.483,0,0,1-1.4-.2,6.553,6.553,0,0,1-1.23-.552,5.144,5.144,0,0,0-1.277-.547,5.178,5.178,0,0,0-.925-.089,7.032,7.032,0,0,1-.825-.064,7.045,7.045,0,0,1-2.395-1.012c-.177-.1-.354-.2-.532-.3a6,6,0,0,0-5.181-.141l-.188.079A2.861,2.861,0,0,1,799.535,2a2.861,2.861,0,0,1-1.414-.58c-.116-.075-.232-.149-.349-.217-1.747-1.012-3.993-.574-6.143-.039l-7.862,1.957c-.917.228-2.824.7-3.114,1.922a.667.667,0,0,0,.007.425c.1.22.424.322.984.312a50.2,50.2,0,0,0,8.118-.807c.116-.023.222-.043.315-.058a.3.3,0,0,1,.106.588l-.315.059c-1.034.209-2.91.757-3.662,2.056-.09.155-.076.207-.074.212s.044.063.215.133a6.544,6.544,0,0,0,1.984.461,13.549,13.549,0,0,0,2.582-.148l.349-.042a51.293,51.293,0,0,1,10.873-.116.3.3,0,0,1,.012.594,30.006,30.006,0,0,0-6.657,1.893,6.279,6.279,0,0,0-1.918,1.044,2.258,2.258,0,0,0-.839,1.77.942.942,0,0,0,.2.553,1.542,1.542,0,0,0,1.223.268A71.33,71.33,0,0,0,805.124,12.6c2.506-.525,5.429.664,6.513,2.648.485.888,1,2.681-1.009,4.723a7.794,7.794,0,0,1-2.2,1.744c-2.059.948-4.245.064-6.359-.791-.521-.211-1.06-.429-1.578-.609a13.377,13.377,0,0,0-8.659-.034,2.96,2.96,0,0,0-1.728,1.394.805.805,0,0,0,.044.719,1.775,1.775,0,0,0,.6.55,19.926,19.926,0,0,0,5.994,2.287c.889.234,1.808.475,2.694.765a34.2,34.2,0,0,1,4.489,1.95,35.794,35.794,0,0,0,4.294,1.886,22.4,22.4,0,0,0,3.2.913,14.52,14.52,0,0,0,3.574.148.3.3,0,0,1,.219.074l18.347,16.231a.3.3,0,0,1-.1.5l-22.7,8.322L802.893,69.29a114.032,114.032,0,0,1,11.893-.638" transform="translate(-624.528 0.003)" fill="#231f20"/>
      <path id="Tracé_2138" data-name="Tracé 2138" d="M452.013,335.6l-.748,2.307-21.783,53.192c-2.861,10.436-6.495,19.251-12.411,23.3l-45.846,34.448-3.309,2.115a70.2,70.2,0,0,0,1.116-13.705c-.08-4.749-.682-9.621-2.932-13.8a15.563,15.563,0,0,0-6.979-6.75l33.128-25.608,8.612-21.53-53.95,23.555c-15.107,5.915-25.339-.566-32.169-15.7l-32.5-52.836,29.316-7.328c8.4,12.766,29.472,44.662,30.283,44.459,1.013-.253,41.032-15.958,41.032-15.958,2.165-6.361,11.451-14.216,20.77-22.076,15.033-1.7,39.3-1.332,48.366,11.917" transform="translate(-225.979 -254.008)" fill="#ff99e5"/>
      <path id="Tracé_2139" data-name="Tracé 2139" d="M366.715,450.058a.3.3,0,0,1-.294-.353,69.974,69.974,0,0,0,1.112-13.647c-.062-3.671-.429-9.081-2.9-13.664a15.316,15.316,0,0,0-6.841-6.62.3.3,0,0,1-.058-.508L390.8,389.707l8.311-20.777-53.282,23.264c-7.408,2.9-13.948,2.911-19.447.034-5.161-2.7-9.571-8.04-13.107-15.87l-32.486-52.819a.3.3,0,0,1,.182-.447l29.316-7.328a.3.3,0,0,1,.322.126c17.55,26.677,28.728,43.146,30.064,44.3,1.961-.664,27.236-10.555,40.765-15.864,2.285-6.448,11.7-14.392,20.815-22.076a.3.3,0,0,1,.159-.069c5.46-.619,16.163-1.4,26.5.353,10.612,1.8,18.062,5.729,22.144,11.692a.3.3,0,0,1,.038.261l-.747,2.306-.008.021L428.565,389.99c-3.474,12.666-7.337,19.9-12.526,23.452L370.2,447.883l-.019.013-3.309,2.115a.3.3,0,0,1-.161.047m-8.23-34.614a16.067,16.067,0,0,1,6.677,6.667c2.529,4.7,2.905,10.2,2.968,13.938a70.615,70.615,0,0,1-1,13.092l2.726-1.742,45.837-34.441c5.077-3.476,8.868-10.611,12.3-23.142a.288.288,0,0,1,.012-.034L449.784,336.6l.7-2.155c-4.005-5.756-11.294-9.564-21.667-11.319-10.211-1.728-20.79-.973-26.245-.359-9.089,7.666-18.467,15.587-20.611,21.885a.3.3,0,0,1-.174.182c-1.635.642-40.049,15.715-41.069,15.969-.28.071-.483.121-4.21-5.184-2.027-2.885-4.856-7.025-8.407-12.305-6.1-9.075-13.065-19.613-17.872-26.918l-28.715,7.178,32.282,52.488a.341.341,0,0,1,.018.034c3.481,7.715,7.8,12.965,12.847,15.6,5.339,2.793,11.712,2.774,18.941-.056L399.54,368.09a.3.3,0,0,1,.4.385l-8.612,21.53a.3.3,0,0,1-.095.125Z" transform="translate(-224.779 -252.808)" fill="#231f20"/>
      <path id="Tracé_2140" data-name="Tracé 2140" d="M70.1,165.464c-9.458,0-21.689-1.52-32.943-2.918a.3.3,0,0,1-.082-.023L9.887,150.753c-7.187-2.114-10.4-6.193-9.82-12.467l.037-1.06a5.549,5.549,0,0,1,6.494-5.27l49.532,8.594,17.893,1.789A8.9,8.9,0,0,1,82,150.825l.48,12.806a.3.3,0,0,1-.192.29c-2.9,1.111-7.148,1.543-12.186,1.543m-32.827-3.507c17.029,2.116,36.3,4.507,44.6,1.48l-.472-12.59a8.3,8.3,0,0,0-7.436-7.913l-17.9-1.79-.021,0L6.5,132.546a4.951,4.951,0,0,0-5.794,4.7l-.038,1.077c-.549,5.967,2.529,9.841,9.41,11.861l.035.013Z" transform="translate(-0.001 -105.585)" fill="#231f20"/>
      <path id="Tracé_2141" data-name="Tracé 2141" d="M204.438,297.252a.3.3,0,0,1-.255-.142l-4.687-7.623-14.251-6.168a.3.3,0,0,1,.156-.571c17.179,2.135,36.649,4.554,44.841,1.411a.3.3,0,0,1,.357.115s1.306,2,3.4,5.187a.3.3,0,0,1-.177.454l-29.316,7.328a.3.3,0,0,1-.073.009M187.4,283.6l12.424,5.378a.3.3,0,0,1,.136.118l4.622,7.516,28.695-7.173c-1.586-2.412-2.681-4.082-3.043-4.636-8.115,2.945-26.273.848-42.834-1.2" transform="translate(-148.172 -226.379)" fill="#231f20"/>
      <path id="Tracé_2142" data-name="Tracé 2142" d="M555.722,311.845a63.448,63.448,0,0,0-9.82,2.172c-3.179.882-6.814,1.609-9.448,3.7a8.62,8.62,0,0,1-1.543,1.111c-.6.289-1.277.386-1.862.7a5.643,5.643,0,0,0-1.9,2.078l-5.454,8.484a3.862,3.862,0,0,0-.735,1.69,1.325,1.325,0,0,0,.9,1.443c.625.127,1.19-.369,1.614-.846a20.182,20.182,0,0,0,3.1-4.658,17.617,17.617,0,0,0-1.426,5.958c.9.462,1.827-.554,2.335-1.431l3.308-5.714a27.108,27.108,0,0,0-1.084,5.183c1.1.213,1.968-.9,2.54-1.865l2.962-5.013a2.8,2.8,0,0,1,.823-1,2.361,2.361,0,0,1,1.407-.263,7.462,7.462,0,0,1,4.209,1.6l-7.174,4.78a3.564,3.564,0,0,0-1.819,2.113.8.8,0,0,0,.124.648.926.926,0,0,0,.6.26c2.656.386,4.965-1.635,7.317-2.928,2.425-1.334,5.169-1.947,7.768-2.9s5.2-2.365,6.612-4.745Z" transform="translate(-420.306 -249.678)" fill="#ff99e5"/>
      <path id="Tracé_2143" data-name="Tracé 2143" d="M528.42,332.894a1.308,1.308,0,0,1-.6-.15.3.3,0,0,1-.162-.284,17.872,17.872,0,0,1,.48-3.183,20.4,20.4,0,0,1-1.637,2.1,2.145,2.145,0,0,1-1.9.94,1.613,1.613,0,0,1-1.139-1.762,4.161,4.161,0,0,1,.781-1.826l5.454-8.484a5.96,5.96,0,0,1,2.009-2.18,5.863,5.863,0,0,1,1.037-.4,4.486,4.486,0,0,0,2.012-1.129c.1-.085.207-.17.311-.253,2.3-1.828,5.277-2.616,8.153-3.378.474-.125.942-.25,1.4-.377a63.924,63.924,0,0,1,9.867-2.182.3.3,0,0,1,.318.207l3.355,10.566a.3.3,0,0,1-.028.243c-1.225,2.062-3.438,3.656-6.766,4.873-.833.3-1.692.578-2.523.843a29.052,29.052,0,0,0-5.205,2.035c-.518.285-1.048.614-1.56.933-1.855,1.153-3.772,2.345-5.943,2.029a1.2,1.2,0,0,1-.781-.363,1.072,1.072,0,0,1-.19-.889,3.822,3.822,0,0,1,1.949-2.313l6.822-4.545a7.172,7.172,0,0,0-3.708-1.289,2.117,2.117,0,0,0-1.23.217,2.591,2.591,0,0,0-.726.9L535.31,328.8c-.913,1.544-1.846,2.2-2.854,2.006a.3.3,0,0,1-.241-.326,27.38,27.38,0,0,1,.505-3.041l-2.173,3.754c-.513.886-1.3,1.7-2.127,1.7m-.153-.619c.628.136,1.328-.627,1.762-1.378l3.309-5.714a.3.3,0,0,1,.544.239,26.883,26.883,0,0,0-1.037,4.82c.638-.032,1.278-.606,1.95-1.743l2.962-5.013a3.082,3.082,0,0,1,.92-1.1,2.649,2.649,0,0,1,1.584-.309,7.769,7.769,0,0,1,4.379,1.667.3.3,0,0,1-.021.483l-7.174,4.78c-.782.521-1.557,1.1-1.69,1.912a.527.527,0,0,0,.058.407.693.693,0,0,0,.41.156c1.954.285,3.778-.849,5.542-1.945.519-.323,1.056-.656,1.588-.949a29.481,29.481,0,0,1,5.311-2.081c.824-.263,1.677-.535,2.5-.835,3.131-1.145,5.223-2.619,6.389-4.5l-3.24-10.2a65.111,65.111,0,0,0-9.53,2.135c-.461.128-.932.253-1.408.379-2.817.746-5.73,1.518-7.935,3.268-.1.081-.2.164-.3.247a5.051,5.051,0,0,1-2.213,1.237,5.328,5.328,0,0,0-.932.355,5.429,5.429,0,0,0-1.789,1.976l-5.454,8.484a3.647,3.647,0,0,0-.688,1.554,1.041,1.041,0,0,0,.663,1.124c.383.077.805-.161,1.331-.752a19.841,19.841,0,0,0,3.059-4.589.3.3,0,0,1,.544.249,17.218,17.218,0,0,0-1.387,5.636" transform="translate(-419.105 -248.478)" fill="#231f20"/>
      <path id="Tracé_2144" data-name="Tracé 2144" d="M903.233,100.2a12.579,12.579,0,0,1-1.778-.126.3.3,0,1,1,.084-.592,12.094,12.094,0,0,0,5.747-.579c.424-.151.851-.331,1.266-.5a11.154,11.154,0,0,1,3.04-.945.3.3,0,0,1,.067.594,10.545,10.545,0,0,0-2.875.9c-.422.177-.857.36-1.3.516a12.684,12.684,0,0,1-4.254.734" transform="translate(-721.545 -78.021)" fill="#231f20"/>
      <path id="Tracé_2145" data-name="Tracé 2145" d="M613.8,271.017l-12.748,5.713a14.691,14.691,0,0,1-7.87,2.279q-.3,0-.6-.012h0a14.642,14.642,0,0,1-2.474-.311,15.289,15.289,0,0,1-5.165-27.554,14.984,14.984,0,0,1,2.42-1.324,14.811,14.811,0,0,1,3.542-1.019l0-.008,13.933-2.344a19.771,19.771,0,0,1,8.967,24.58" transform="translate(-462.969 -197.309)" fill="#ff99e5"/>
      <path id="Tracé_2146" data-name="Tracé 2146" d="M720.628,247.934a19.771,19.771,0,0,0-8.967-24.58l34.164-5.747,14.419,12.312Z" transform="translate(-569.791 -174.227)" fill="#ff99e5"/>
      <path id="Tracé_2147" data-name="Tracé 2147" d="M601.714,278.531a15.211,15.211,0,0,1-9.126,14h0a14.644,14.644,0,0,1-2.474-.311,15.289,15.289,0,0,1-5.165-27.554,14.98,14.98,0,0,1,2.42-1.324,15.085,15.085,0,0,1,14.347,15.184" transform="translate(-462.969 -210.848)" fill="#ff99e5"/>
      <path id="Tracé_2148" data-name="Tracé 2148" d="M596.816,284.86a15.247,15.247,0,0,1-6.7,12.681,15.289,15.289,0,0,1-5.165-27.554,15.139,15.139,0,0,1,11.869,14.873" transform="translate(-462.969 -216.165)" fill="#fff"/>
      <path id="Tracé_2149" data-name="Tracé 2149" d="M696.6,229.05l.169-3.884-17.9,1.857-3.208,5.4Z" transform="translate(-540.965 -180.279)" fill="#ff99e5"/>
      <path id="Tracé_2150" data-name="Tracé 2150" d="M665.3,234.484l-3.546.675-3.039,4.559,3.377.169Z" transform="translate(-527.401 -187.739)" fill="#ff99e5"/>
      <path id="Tracé_2151" data-name="Tracé 2151" d="M591.985,278.107q-.308,0-.61-.012a14.988,14.988,0,0,1-2.526-.317,15.588,15.588,0,0,1-5.27-28.095,15.309,15.309,0,0,1,2.468-1.35,15.141,15.141,0,0,1,3.544-1.028.281.281,0,0,1,.063-.019l13.932-2.344a.3.3,0,0,1,.188.029c8.775,4.565,12.691,15.291,9.109,24.949a.3.3,0,0,1-.158.169L600,275.793a15.025,15.025,0,0,1-8.012,2.314m-2.162-30.243a.27.27,0,0,1-.069.02,14.538,14.538,0,0,0-3.471,1,14.7,14.7,0,0,0-2.371,1.3,14.989,14.989,0,0,0,5.06,27.013,14.407,14.407,0,0,0,2.424.3c.2.008.391.012.588.012a14.426,14.426,0,0,0,7.711-2.233.324.324,0,0,1,.038-.02l12.634-5.662c3.391-9.313-.369-19.613-8.779-24.047Zm22.78,21.952h0Z" transform="translate(-461.768 -196.108)" fill="#231f20"/>
      <path id="Tracé_2152" data-name="Tracé 2152" d="M719.427,247.032a.3.3,0,0,1-.281-.4c3.477-9.376-.316-19.784-8.824-24.211a.3.3,0,0,1,.088-.56l34.164-5.747a.3.3,0,0,1,.244.067l14.419,12.312a.3.3,0,0,1-.07.5L719.55,247.005a.3.3,0,0,1-.124.027m-8.069-24.727c8.044,4.663,11.654,14.669,8.585,23.865l38.55-17.53-13.955-11.916Z" transform="translate(-568.591 -173.026)" fill="#231f20"/>
      <path id="Tracé_2153" data-name="Tracé 2153" d="M591.386,291.634a14.984,14.984,0,0,1-2.538-.318,15.587,15.587,0,0,1-5.27-28.095,15.308,15.308,0,0,1,2.469-1.35.307.307,0,0,1,.13-.024A15.549,15.549,0,0,1,591.5,291.61a.3.3,0,0,1-.118.024m-5.165-29.186a14.708,14.708,0,0,0-2.309,1.27,14.989,14.989,0,0,0,5.06,27.013,14.4,14.4,0,0,0,2.358.3,14.891,14.891,0,0,0,8.883-13.7,14.739,14.739,0,0,0-13.992-14.883" transform="translate(-461.767 -209.648)" fill="#231f20"/>
      <path id="Tracé_2154" data-name="Tracé 2154" d="M588.911,296.639a.3.3,0,0,1-.062-.007,15.588,15.588,0,0,1-5.27-28.095.3.3,0,0,1,.229-.044,15.589,15.589,0,0,1,5.27,28.094.3.3,0,0,1-.167.051m-5.1-27.534a14.992,14.992,0,0,0,5.041,26.915,14.993,14.993,0,0,0-5.041-26.915" transform="translate(-461.767 -214.964)" fill="#231f20"/>
      <path id="Tracé_2155" data-name="Tracé 2155" d="M674.456,231.524a.3.3,0,0,1-.257-.452l3.208-5.4a.3.3,0,0,1,.226-.145l17.9-1.858a.3.3,0,0,1,.33.311l-.169,3.884a.3.3,0,0,1-.251.282L674.5,231.52a.317.317,0,0,1-.048,0m3.389-5.42-2.805,4.725,20.067-3.237.143-3.294Zm17.55,1.744h0Z" transform="translate(-539.764 -179.077)" fill="#231f20"/>
      <path id="Tracé_2156" data-name="Tracé 2156" d="M660.892,238.985h-.015l-3.377-.169a.3.3,0,0,1-.234-.464l3.039-4.559a.3.3,0,0,1,.193-.128l3.546-.676a.3.3,0,0,1,.313.447l-3.208,5.4a.3.3,0,0,1-.257.146m-2.836-.74,2.671.134L663.5,233.7l-2.771.528Z" transform="translate(-526.2 -186.538)" fill="#231f20"/>
      <path id="Tracé_2157" data-name="Tracé 2157" d="M730.7,248.993l-12.748,5.713a14.69,14.69,0,0,1-7.87,2.279q-.3,0-.6-.012h0a14.652,14.652,0,0,1-2.474-.311,15.289,15.289,0,0,1-5.165-27.554,14.963,14.963,0,0,1,2.42-1.324,14.805,14.805,0,0,1,3.542-1.019l0-.008,13.933-2.344a19.771,19.771,0,0,1,8.967,24.58" transform="translate(-556.56 -179.676)" fill="#ff99e5"/>
      <path id="Tracé_2158" data-name="Tracé 2158" d="M837.522,225.91a19.77,19.77,0,0,0-8.967-24.58l34.165-5.747,14.419,12.312Z" transform="translate(-663.383 -156.593)" fill="#ff99e5"/>
      <path id="Tracé_2159" data-name="Tracé 2159" d="M718.608,256.507a15.211,15.211,0,0,1-9.126,14h0a14.664,14.664,0,0,1-2.474-.311,15.289,15.289,0,0,1-5.165-27.554,11.245,11.245,0,0,1,16.767,13.861" transform="translate(-556.56 -193.215)" fill="#ff99e5"/>
      <path id="Tracé_2160" data-name="Tracé 2160" d="M713.71,262.836a15.247,15.247,0,0,1-6.7,12.681,15.289,15.289,0,0,1-5.165-27.554,15.139,15.139,0,0,1,11.869,14.873" transform="translate(-556.56 -198.531)" fill="#fff"/>
      <path id="Tracé_2161" data-name="Tracé 2161" d="M813.49,207.027l.169-3.884L795.759,205l-3.208,5.4Z" transform="translate(-634.556 -162.646)" fill="#ff99e5"/>
      <path id="Tracé_2162" data-name="Tracé 2162" d="M782.2,212.46l-3.546.675-3.04,4.559,3.377.169Z" transform="translate(-620.993 -170.106)" fill="#ff99e5"/>
      <path id="Tracé_2163" data-name="Tracé 2163" d="M708.879,256.083q-.308,0-.61-.012a15.006,15.006,0,0,1-2.526-.317,15.588,15.588,0,0,1-5.27-28.095,15.321,15.321,0,0,1,2.469-1.35,15.141,15.141,0,0,1,3.544-1.028.283.283,0,0,1,.063-.019l13.933-2.344a.3.3,0,0,1,.187.03c8.775,4.565,12.691,15.291,9.109,24.949a.3.3,0,0,1-.158.169l-12.729,5.7a15.024,15.024,0,0,1-8.012,2.313m-2.161-30.243a.269.269,0,0,1-.069.02,14.533,14.533,0,0,0-3.471,1,14.7,14.7,0,0,0-2.371,1.3,14.989,14.989,0,0,0,5.06,27.013,14.381,14.381,0,0,0,2.424.3c.2.008.391.012.588.012a14.426,14.426,0,0,0,7.711-2.233.329.329,0,0,1,.038-.02l12.633-5.662c3.391-9.313-.368-19.613-8.779-24.047Zm22.78,21.952h0Z" transform="translate(-555.359 -178.475)" fill="#231f20"/>
      <path id="Tracé_2164" data-name="Tracé 2164" d="M836.321,225.008a.3.3,0,0,1-.281-.4c3.478-9.376-.316-19.784-8.824-24.211a.3.3,0,0,1,.088-.56l34.165-5.747a.3.3,0,0,1,.244.068l14.419,12.312a.3.3,0,0,1-.07.5l-39.617,18.015a.3.3,0,0,1-.124.027m-8.069-24.727c8.044,4.663,11.654,14.669,8.584,23.865l38.55-17.53L861.431,194.7Z" transform="translate(-662.182 -155.391)" fill="#231f20"/>
      <path id="Tracé_2165" data-name="Tracé 2165" d="M708.281,269.61a15.008,15.008,0,0,1-2.538-.318,15.587,15.587,0,0,1-5.27-28.094,15.3,15.3,0,0,1,2.468-1.35.307.307,0,0,1,.131-.024,15.548,15.548,0,0,1,5.327,29.762.3.3,0,0,1-.118.024m-5.165-29.186a14.7,14.7,0,0,0-2.309,1.27,14.989,14.989,0,0,0,5.06,27.013,14.423,14.423,0,0,0,2.358.3,14.891,14.891,0,0,0,8.883-13.7,14.739,14.739,0,0,0-13.992-14.883" transform="translate(-555.359 -192.014)" fill="#231f20"/>
      <path id="Tracé_2166" data-name="Tracé 2166" d="M705.8,274.615a.294.294,0,0,1-.062-.007,15.587,15.587,0,0,1-5.27-28.095.3.3,0,0,1,.229-.044,15.589,15.589,0,0,1,5.27,28.095.3.3,0,0,1-.167.051m-5.1-27.534A14.992,14.992,0,0,0,705.743,274a14.993,14.993,0,0,0-5.041-26.915" transform="translate(-555.359 -197.33)" fill="#231f20"/>
      <path id="Tracé_2167" data-name="Tracé 2167" d="M791.35,209.5a.3.3,0,0,1-.257-.452l3.208-5.4a.3.3,0,0,1,.227-.145l17.9-1.858a.3.3,0,0,1,.33.311l-.169,3.884a.3.3,0,0,1-.251.282L791.4,209.5a.3.3,0,0,1-.048,0m3.389-5.421-2.805,4.724L812,205.569l.143-3.294Zm17.55,1.744h0Z" transform="translate(-633.356 -161.444)" fill="#231f20"/>
      <path id="Tracé_2168" data-name="Tracé 2168" d="M777.786,216.962h-.016l-3.377-.169a.3.3,0,0,1-.234-.464l3.039-4.559a.3.3,0,0,1,.193-.128l3.546-.675a.3.3,0,0,1,.313.446l-3.208,5.4a.3.3,0,0,1-.257.146m-2.837-.74,2.671.133,2.778-4.678-2.771.528Z" transform="translate(-619.791 -168.905)" fill="#231f20"/>
      <path id="Tracé_2169" data-name="Tracé 2169" d="M1004.737,199.808a.3.3,0,0,1-.194-.072l-21.952-18.744a.3.3,0,1,1,.388-.455l21.952,18.743a.3.3,0,0,1-.194.527" transform="translate(-786.628 -144.49)" fill="#231f20"/>
      <path id="Tracé_2170" data-name="Tracé 2170" d="M1004.736,199.806a.3.3,0,0,1-.194-.072L982.589,180.99a.3.3,0,1,1,.388-.455l21.952,18.745a.3.3,0,0,1-.194.527" transform="translate(-786.627 -144.488)" fill="#231f20"/>
      <path id="Tracé_2171" data-name="Tracé 2171" d="M876.055,488.218a.3.3,0,0,1-.272-.423l6.738-14.74,1.344-7.729a.3.3,0,1,1,.589.1L883.1,473.2a.306.306,0,0,1-.022.073l-6.755,14.775a.3.3,0,0,1-.272.175" transform="translate(-701.174 -372.364)" fill="#231f20"/>
      <path id="Tracé_2172" data-name="Tracé 2172" d="M82.109,171.47h-.015C56.5,170.256,29.13,165.677.735,157.86a.3.3,0,0,1,.159-.577c28.353,7.806,55.683,12.378,81.23,13.589a.3.3,0,0,1-.014.6" transform="translate(-0.412 -125.919)" fill="#231f20"/>
      <path id="Tracé_2173" data-name="Tracé 2173" d="M270.371,881.9a10.18,10.18,0,0,1-2.435-.3l-6.5-1.627a.3.3,0,0,1-.129-.511,26.893,26.893,0,0,0,4.609-6.19c6.321-10.6,12.27-21.648,18.022-32.336l.042-.079c7.113-13.215,14.458-26.862,20.647-40.777,3.848-8.65,8.5-20.136,10.37-32.278a.3.3,0,0,1,.487-.184l18.434,15.362a.3.3,0,0,1,.088.124,23.1,23.1,0,0,1,1.038,9.65A67.058,67.058,0,0,1,317.862,833.2a.316.316,0,0,1-.037.034c-2.592,2.046-5.134,4.225-7.556,6.478L280.659,874.9c-3.012,4.657-6.464,7-10.288,7m-8.266-2.38,5.974,1.494c4.533,1.114,8.6-1.058,12.088-6.458a.254.254,0,0,1,.022-.031l29.635-35.207a.346.346,0,0,1,.025-.026c2.431-2.263,4.984-4.452,7.586-6.507a66.453,66.453,0,0,0,17.007-40.074h0a22.664,22.664,0,0,0-.972-9.327L315.5,768.41c-1.928,12.019-6.525,23.349-10.332,31.909-6.2,13.935-13.548,27.592-20.657,40.8l-.051.1c-5.756,10.693-11.708,21.751-18.035,32.358a29.294,29.294,0,0,1-4.32,5.947M317.64,833h0Z" transform="translate(-209.134 -614.533)" fill="#231f20"/>
      <path id="Tracé_2174" data-name="Tracé 2174" d="M543.1,871a.3.3,0,0,1-.222-.5A66.456,66.456,0,0,0,559.906,830.4a22.539,22.539,0,0,0-1-9.4.3.3,0,0,1,.471-.336l.211.175,7.967-6.158a.3.3,0,0,1,.308-.035,15.923,15.923,0,0,1,7.118,6.88c2.53,4.7,2.906,10.2,2.968,13.938a70.591,70.591,0,0,1-1.121,13.764.3.3,0,0,1-.133.2l-12.141,7.762-.02.012a141.084,141.084,0,0,0-21.244,13.728.3.3,0,0,1-.185.064m16.607-49.5a24.369,24.369,0,0,1,.792,8.946,67,67,0,0,1-15.24,38.215,144.866,144.866,0,0,1,18.979-11.975L576.262,849a70,70,0,0,0,1.088-13.519c-.061-3.671-.429-9.08-2.9-13.664a15.371,15.371,0,0,0-6.677-6.543l-8.013,6.194a.291.291,0,0,1-.052.032m16.822,27.682h0Z" transform="translate(-434.597 -652.227)" fill="#231f20"/>
      <path id="Tracé_2175" data-name="Tracé 2175" d="M252.054,876.87a.307.307,0,0,1-.073-.009l-.588-.147a.313.313,0,0,1-.093-.042c-2.4-1.607-2.523-6.933-.372-15.832,3.617-14.962,13.282-38.316,24.623-59.5a209.931,209.931,0,0,1,16.108-26.08c5.5-7.316,9.949-11.218,13.217-11.6a.3.3,0,0,1,.226.067l.929.774a.3.3,0,0,1,.1.275c-1.877,12.213-6.552,23.747-10.414,32.43-6.2,13.935-13.549,27.593-20.657,40.8l-.052.1c-5.756,10.694-11.708,21.751-18.035,32.359a27.387,27.387,0,0,1-4.72,6.325.3.3,0,0,1-.2.078m-.463-.724.379.1a27.451,27.451,0,0,0,4.492-6.081c6.321-10.6,12.269-21.648,18.022-32.336l.043-.079c7.112-13.215,14.458-26.862,20.647-40.777,3.83-8.61,8.461-20.031,10.344-32.112l-.7-.581c-5.942.869-16.667,14.8-28.741,37.35-11.145,20.814-21.018,44.667-24.569,59.354-2.574,10.649-1.39,14.132.082,15.166" transform="translate(-199.685 -611.427)" fill="#231f20"/>
      <path id="Tracé_2176" data-name="Tracé 2176" d="M311.915,909.524a.3.3,0,0,1-.242-.475,422.211,422.211,0,0,0,32.805-54.12c14.606-28.814,17.923-44.416,18.134-52.432a.3.3,0,1,1,.6.016c-.212,8.077-3.542,23.774-18.2,52.686a422.786,422.786,0,0,1-32.855,54.2.3.3,0,0,1-.242.123" transform="translate(-249.496 -642.286)" fill="#231f20"/>
      <path id="Tracé_2177" data-name="Tracé 2177" d="M967.538,107.831a.3.3,0,0,1-.063-.591c7.085-1.527,9.923-7.945,11.935-14.653a.3.3,0,1,1,.573.172,31.657,31.657,0,0,1-4.313,9.65,13.016,13.016,0,0,1-8.069,5.417.3.3,0,0,1-.063.007" transform="translate(-774.42 -73.958)" fill="#231f20"/>
    </g>
  </g>
</svg>
