<svg id="Paper" xmlns="http://www.w3.org/2000/svg" width="24.091" height="28.341" viewBox="0 0 24.091 28.341">
  <path id="Paper-2" data-name="Paper" d="M6.623,28.341A6.657,6.657,0,0,1,0,21.667V6.391A6.367,6.367,0,0,1,6.327,0H13.82a.649.649,0,0,1,.645.652V5.215a4.734,4.734,0,0,0,4.687,4.733c.6,0,1.125,0,1.59.009.363,0,.681.005.963.005.2,0,.458,0,.738-.006.324,0,.689-.008,1.015-.008a.635.635,0,0,1,.631.638V21.979a6.339,6.339,0,0,1-6.3,6.363Zm.014-9.012a1.071,1.071,0,0,0,1.052,1.062h7.632a1.071,1.071,0,0,0,1.052-1.062,1.052,1.052,0,0,0-1.052-1.05H7.689A1.052,1.052,0,0,0,6.637,19.33Zm0-7.072a1.052,1.052,0,0,0,1.052,1.048h4.742a1.052,1.052,0,0,0,1.052-1.048A1.071,1.071,0,0,0,12.431,11.2H7.689A1.071,1.071,0,0,0,6.637,12.258Zm12.7-4.38A2.859,2.859,0,0,1,16.51,5.02V1.284A.67.67,0,0,1,17.664.811C19.18,2.4,21.831,5.188,23.313,6.744a.675.675,0,0,1-.482,1.143l-.98,0C20.963,7.889,20.051,7.884,19.34,7.878Z" fill="#0b0b0b"/>
</svg>
