<svg id="Groupe_10" data-name="Groupe 10" xmlns="http://www.w3.org/2000/svg" xmlns:xlink="http://www.w3.org/1999/xlink" width="180.284" height="238.007" viewBox="0 0 180.284 238.007">
  <defs>
    <clipPath id="clip-path">
      <rect id="Rectangle_11" data-name="Rectangle 11" width="180.284" height="238.007"/>
    </clipPath>
  </defs>
  <g id="Groupe_9" data-name="Groupe 9" clip-path="url(#clip-path)">
    <path id="Tracé_51" data-name="Tracé 51" d="M212.74,407.658H199.661l5.115-31.966a1.516,1.516,0,1,1,2.995.479l-4.553,28.454h9.522a1.517,1.517,0,0,1,0,3.033" transform="translate(-90.468 -169.651)"/>
    <path id="Tracé_52" data-name="Tracé 52" d="M155.043,29.8l.867,3.294-17.566,3.856-1.875-2.024Z" transform="translate(-61.836 -13.5)" fill="#43af35"/>
    <path id="Tracé_53" data-name="Tracé 53" d="M81.165,32.447s-17.228-18.6-36.5-11.94S8.515,49.828,8.515,49.828,29.283,71.5,51.7,62.916c15.1-5.785,18.278-22.2,29.468-30.468" transform="translate(-3.858 -8.64)" fill="#3a9838"/>
    <path id="Tracé_54" data-name="Tracé 54" d="M8.514,49.81s16.875-22.664,36.148-29.32S81.574,32.1,81.574,32.1s-9.013-3.684-23.145,5.714c-17.2,11.44-28.532,18.061-49.915,12" transform="translate(-3.858 -8.622)" fill="#43af35"/>
    <path id="Tracé_55" data-name="Tracé 55" d="M39.052,65.067C20.966,65.067,6.5,50.232,5.777,49.473l-.888-.926.766-1.029c.7-.941,17.379-23.116,36.87-29.849,16.284-5.624,31.072,4.186,36.043,8.067l17.987-4.011L98.418,29.6,80.186,33.217c-4.266,3.235-7.315,7.6-10.539,12.213-4.785,6.848-9.734,13.929-19.05,17.5a32.053,32.053,0,0,1-11.544,2.138M8.9,48.281C13.119,52.207,30.912,67.222,49.511,60.1c8.448-3.237,12.918-9.632,17.65-16.4,3.286-4.7,6.685-9.566,11.491-13.116l.273-.2,15.818-3.136-.45-1.9L77.807,29.015l-.569-.462c-3.993-3.233-18.225-13.367-33.722-8.015C27.239,26.159,12.471,43.788,8.9,48.281" transform="translate(-2.215 -7.236)" fill="#3c1e01"/>
    <path id="Tracé_56" data-name="Tracé 56" d="M165.6,35.612S166.714,5.4,170.63,3.724,179.581,2.6,181.26,5.4,173.733,19.375,170.5,36.724Z" transform="translate(-75.033 -1.26)" fill="#3a9838"/>
    <path id="Tracé_57" data-name="Tracé 57" d="M170.412,37.292l-7.673-1.738.046-1.258c0-.076.29-7.688,1.055-15.408,1.43-14.427,3.2-17.089,4.9-17.817C173.006-.757,179.008-.4,181.266,3.363c1.151,1.917-.163,4.68-2.549,9.694-2.63,5.529-6.232,13.1-8.016,22.686Zm-4.545-4.139,2.159.489c1.949-9.267,5.537-16.808,7.953-21.888,1.354-2.847,2.889-6.072,2.663-6.881-1.171-1.94-5.3-2.452-8.659-1.035-1.875,1.582-3.56,16.16-4.116,29.314" transform="translate(-73.739 0)" fill="#3c1e01"/>
    <path id="Tracé_58" data-name="Tracé 58" d="M142.693,232.407c9.03-4.891,42.517-26.853,41.927-80.52-.614-55.72-48.358-75.6-50.494-76.263s-8.775-14.407-19.964-13.847c-9.205.46-14.185,11.608-16.784,13.427-5.595,3.916-48.561,25.054-47.753,79,.76,50.794,36.666,72.956,42.159,75.969,17.344,9.511,37.483,9.511,50.91,2.238" transform="translate(-22.48 -27.984)" fill="#eefd53"/>
    <path id="Tracé_59" data-name="Tracé 59" d="M188.9,189.322c-.208-18.885-5.832-33.647-13.257-44.946a86.275,86.275,0,0,1,4.306,26.484c.591,53.666-32.9,75.628-41.927,80.52-13.427,7.273-33.567,7.273-50.91-2.238-3.245-1.78-17.1-10.244-28.057-27.342,10.294,29.666,32.757,43.472,37.008,45.8,17.343,9.51,37.483,9.51,50.91,2.238,9.03-4.892,42.517-26.854,41.927-80.52" transform="translate(-26.757 -65.418)" fill="#d5e342"/>
    <path id="Tracé_61" data-name="Tracé 61" d="M217.972,172.47A10.272,10.272,0,1,1,207.7,182.742a10.272,10.272,0,0,1,10.272-10.272" transform="translate(-94.111 -78.148)" fill="#3c1e01"/>
    <path id="Tracé_62" data-name="Tracé 62" d="M234.2,184.177a2.739,2.739,0,1,0-2.739,2.739,2.739,2.739,0,0,0,2.739-2.739" transform="translate(-103.637 -82.211)" fill="#fff"/>
    <path id="Tracé_63" data-name="Tracé 63" d="M214.157,190.6c-.835-1.836-2.069-3.071-2.758-2.758s-.57,2.055.265,3.891,2.069,3.071,2.758,2.758.57-2.055-.265-3.891" transform="translate(-95.584 -85.09)" fill="#fff"/>
    <path id="Tracé_64" data-name="Tracé 64" d="M111.112,172.47a10.272,10.272,0,1,1-10.272,10.272,10.272,10.272,0,0,1,10.272-10.272" transform="translate(-45.692 -78.148)" fill="#3c1e01"/>
    <path id="Tracé_65" data-name="Tracé 65" d="M127.341,184.177a2.739,2.739,0,1,0-2.739,2.739,2.739,2.739,0,0,0,2.739-2.739" transform="translate(-55.217 -82.211)" fill="#fff"/>
    <path id="Tracé_66" data-name="Tracé 66" d="M107.3,190.6c-.835-1.836-2.069-3.071-2.758-2.758s-.57,2.055.265,3.891,2.069,3.071,2.758,2.758.57-2.055-.265-3.891" transform="translate(-47.164 -85.09)" fill="#fff"/>
    <path id="Tracé_67" data-name="Tracé 67" d="M103.164,231.521c0,2.781-5.26,5.035-11.748,5.035s-11.748-2.254-11.748-5.035,5.26-5.035,11.748-5.035,11.748,2.254,11.748,5.035" transform="translate(-36.098 -102.623)" fill="#ff809e"/>
    <path id="Tracé_68" data-name="Tracé 68" d="M246.378,231.521c0,2.781-5.26,5.035-11.748,5.035s-11.748-2.254-11.748-5.035,5.26-5.035,11.748-5.035,11.748,2.254,11.748,5.035" transform="translate(-100.989 -102.623)" fill="#ff809e"/>
    <path id="Tracé_69" data-name="Tracé 69" d="M119.294,237.92A61.919,61.919,0,0,1,89.8,230.243c-4.313-2.365-42.158-24.625-42.946-77.276-.319-21.32,6.037-40.108,18.892-55.842C76.069,84.491,87.994,77.19,93.085,74.072c.961-.589,1.721-1.054,2.168-1.367A17.872,17.872,0,0,0,97.6,69.881c3.115-4.183,7.821-10.5,15.231-10.874,8.93-.448,15.154,7.351,18.5,11.541a20.413,20.413,0,0,0,2.079,2.4c2.227.736,14.576,6.3,26.344,17.822,11.286,11.045,24.808,30.393,25.132,59.845.255,23.2-5.683,43.2-17.651,59.466a79.222,79.222,0,0,1-25.07,22.4h0a48.039,48.039,0,0,1-22.866,5.436m-5.73-175.9c-.193,0-.386,0-.581.015-5.982.3-10.175,5.93-12.95,9.656a16.492,16.492,0,0,1-3.04,3.5c-.523.366-1.317.853-2.323,1.468-30.2,18.489-45.264,44.147-44.784,76.264.762,50.934,37.218,72.384,41.372,74.661,15.925,8.734,35.8,9.631,49.458,2.235h0c9.8-5.306,41.71-26.7,41.133-79.17-.251-22.811-8.4-42.228-24.22-57.711-12.66-12.39-25.094-17.085-25.207-17.12-1.024-.318-1.892-1.4-3.466-3.378-3.129-3.923-8.311-10.418-15.392-10.418" transform="translate(-21.225 -26.728)" fill="#3c1e01"/>
    <path id="Tracé_70" data-name="Tracé 70" d="M299.085,286.758l-2.01-2.271c.15-.133,15.066-13.655,13.919-35.162-.771-14.449-15.536-25.877-15.685-25.99l1.84-2.411c.654.5,16.03,12.406,16.874,28.24,1.226,23.009-14.278,37.01-14.938,37.594" transform="translate(-133.807 -100.102)"/>
    <path id="Tracé_71" data-name="Tracé 71" d="M290.95,347.4a1.518,1.518,0,0,1-1.457-1.939l2.079-7.181-7.078,1.125a1.516,1.516,0,1,1-.476-3l11.8-1.876L292.406,346.3a1.519,1.519,0,0,1-1.456,1.095" transform="translate(-128.112 -151.579)"/>
    <path id="Tracé_72" data-name="Tracé 72" d="M288.035,344.933a1.516,1.516,0,0,1-.983-2.671l6.239-5.312a1.516,1.516,0,1,1,1.966,2.309l-6.239,5.312a1.512,1.512,0,0,1-.983.362" transform="translate(-129.824 -152.511)"/>
    <path id="Tracé_73" data-name="Tracé 73" d="M24.253,218.042c-6.666,0-21.188-1.482-23.873-14.108-4.069-19.144,25.868-35.49,27.145-36.177l1.437,2.671c-.293.158-29.213,15.949-25.615,32.876,2.868,13.491,23.714,11.606,23.924,11.584l.3,3.018c-.211.021-1.46.136-3.317.136" transform="translate(0 -76.012)"/>
    <path id="Tracé_74" data-name="Tracé 74" d="M140.714,407.657H127.636a1.517,1.517,0,1,1,0-3.033h9.522l-4.553-28.454a1.516,1.516,0,1,1,2.995-.479Z" transform="translate(-57.146 -169.65)"/>
    <path id="Tracé_75" data-name="Tracé 75" d="M68.546,168.553h48.772s-.516,26.063-24.773,26.063c-22.967,0-24-26.063-24-26.063" transform="translate(-31.059 -76.373)" fill="#3c1e01"/>
    <path id="Tracé_76" data-name="Tracé 76" d="M91.373,191.774a20.9,20.9,0,0,0,6.159,2.3l20.7-25.522h-8.319Z" transform="translate(-41.402 -76.372)" fill="#fff"/>
    <path id="Tracé_77" data-name="Tracé 77" d="M96.385,168.552l-14.94,18.715a21.349,21.349,0,0,0,2.388,2.387l17.115-21.1H96.385Z" transform="translate(-36.903 -76.372)" fill="#fff"/>
    <path id="Tracé_78" data-name="Tracé 78" d="M184.977,168.553h48.772s-.516,26.063-24.773,26.063c-22.967,0-24-26.063-24-26.063" transform="translate(-83.815 -76.373)" fill="#3c1e01"/>
    <path id="Tracé_79" data-name="Tracé 79" d="M207.8,191.774a20.9,20.9,0,0,0,6.159,2.3l20.7-25.522h-8.319Z" transform="translate(-94.158 -76.372)" fill="#fff"/>
    <path id="Tracé_80" data-name="Tracé 80" d="M212.817,168.552l-14.941,18.715a21.349,21.349,0,0,0,2.388,2.387l17.115-21.1h-4.562Z" transform="translate(-89.659 -76.372)" fill="#fff"/>
    <path id="Tracé_81" data-name="Tracé 81" d="M170.185,163.069a5.694,5.694,0,0,0-5.876-4.289c-5,0-6.265,3.912-6.277,3.952l-2.9-.892a9.347,9.347,0,0,1,9.176-6.092,8.776,8.776,0,0,1,8.842,6.686Z" transform="translate(-70.292 -70.57)" fill="#3c1e01"/>
    <path id="Tracé_82" data-name="Tracé 82" d="M91.237,194.876c-24.145,0-25.5-27.244-25.514-27.52l-.062-1.576h51.9l-.031,1.547c-.005.276-.84,27.549-26.289,27.549m-22.35-26.063c.623,5.475,4.051,23.03,22.35,23.03,19.4,0,22.622-17.593,23.153-23.03Z" transform="translate(-29.752 -75.116)" fill="#3c1e01"/>
    <path id="Tracé_83" data-name="Tracé 83" d="M207.668,194.876c-24.145,0-25.5-27.244-25.514-27.52l-.062-1.576h51.9l-.031,1.547c-.005.276-.84,27.549-26.289,27.549m-22.35-26.063c.623,5.475,4.051,23.03,22.35,23.03,19.4,0,22.622-17.593,23.153-23.03Z" transform="translate(-82.508 -75.116)" fill="#3c1e01"/>
    <path id="Tracé_84" data-name="Tracé 84" d="M165.865,233.878a21.753,21.753,0,0,1-3.373-.233,1.516,1.516,0,0,1,.534-2.985c.658.117,15.715,2.581,18.372-11.947a1.516,1.516,0,0,1,2.983.546c-2.357,12.889-12.984,14.619-18.517,14.619" transform="translate(-73.061 -98.537)" fill="#3c1e01"/>
    <path id="Tracé_85" data-name="Tracé 85" d="M54.539,165.877c-3.461,0-5.657-.907-6.662-2.736-2.264-4.118,3.173-10.471,4.285-11.7a1.517,1.517,0,0,1,2.252,2.033c-2.1,2.333-4.789,6.556-3.879,8.21.258.469,1.646,1.9,8.684.7a1.516,1.516,0,1,1,.51,2.989,31.389,31.389,0,0,1-5.189.5" transform="translate(-21.446 -68.392)"/>
  </g>
</svg>
